<svg width="222" height="171" viewBox="0 0 222 171" fill="none" xmlns="http://www.w3.org/2000/svg">
<path d="M17.8665 25V13.3636H22.321C23.1619 13.3636 23.8608 13.4962 24.4176 13.7614C24.9782 14.0227 25.3968 14.3807 25.6733 14.8352C25.9536 15.2898 26.0938 15.8049 26.0938 16.3807C26.0938 16.8542 26.0028 17.2595 25.821 17.5966C25.6392 17.9299 25.3949 18.2008 25.0881 18.4091C24.7812 18.6174 24.4384 18.767 24.0597 18.858V18.9716C24.4725 18.9943 24.8684 19.1212 25.2472 19.3523C25.6297 19.5795 25.9422 19.9015 26.1847 20.3182C26.4271 20.7348 26.5483 21.2386 26.5483 21.8295C26.5483 22.4318 26.4025 22.9735 26.1108 23.4545C25.8191 23.9318 25.3797 24.3087 24.7926 24.5852C24.2055 24.8617 23.4669 25 22.5767 25H17.8665ZM19.9744 23.2386H22.2415C23.0066 23.2386 23.5578 23.0928 23.8949 22.8011C24.2358 22.5057 24.4062 22.1269 24.4062 21.6648C24.4062 21.3201 24.321 21.0095 24.1506 20.733C23.9801 20.4527 23.7377 20.233 23.4233 20.0739C23.1089 19.911 22.7339 19.8295 22.2983 19.8295H19.9744V23.2386ZM19.9744 18.3125H22.0597C22.4233 18.3125 22.7509 18.2462 23.0426 18.1136C23.3343 17.9773 23.5634 17.786 23.7301 17.5398C23.9006 17.2898 23.9858 16.9943 23.9858 16.6534C23.9858 16.2027 23.8267 15.8314 23.5085 15.5398C23.1941 15.2481 22.7263 15.1023 22.1051 15.1023H19.9744V18.3125ZM32.1548 25.1705C31.2798 25.1705 30.5241 24.9886 29.8878 24.625C29.2552 24.2576 28.7685 23.7386 28.4276 23.0682C28.0866 22.3939 27.9162 21.6004 27.9162 20.6875C27.9162 19.7898 28.0866 19.0019 28.4276 18.3239C28.7723 17.642 29.2533 17.1117 29.8707 16.733C30.4882 16.3504 31.2135 16.1591 32.0469 16.1591C32.5848 16.1591 33.0923 16.2462 33.5696 16.4205C34.0507 16.5909 34.4749 16.8561 34.8423 17.2159C35.2135 17.5758 35.5052 18.0341 35.7173 18.5909C35.9295 19.1439 36.0355 19.803 36.0355 20.5682V21.1989H28.8821V19.8125H34.0639C34.0601 19.4186 33.9749 19.0682 33.8082 18.7614C33.6416 18.4508 33.4086 18.2064 33.1094 18.0284C32.8139 17.8504 32.4692 17.7614 32.0753 17.7614C31.6548 17.7614 31.2855 17.8636 30.9673 18.0682C30.6491 18.2689 30.401 18.5341 30.223 18.8636C30.0488 19.1894 29.9598 19.5473 29.956 19.9375V21.1477C29.956 21.6553 30.0488 22.0909 30.2344 22.4545C30.42 22.8144 30.6795 23.0909 31.0128 23.2841C31.3461 23.4735 31.7363 23.5682 32.1832 23.5682C32.4825 23.5682 32.7533 23.5265 32.9957 23.4432C33.2382 23.3561 33.4484 23.2292 33.6264 23.0625C33.8045 22.8958 33.9389 22.6894 34.0298 22.4432L35.9503 22.6591C35.8291 23.1667 35.598 23.6098 35.2571 23.9886C34.92 24.3636 34.4882 24.6553 33.9616 24.8636C33.4351 25.0682 32.8329 25.1705 32.1548 25.1705ZM39.8324 19.8864V25H37.7756V16.2727H39.7415V17.7557H39.8438C40.0445 17.267 40.3646 16.8788 40.804 16.5909C41.2472 16.303 41.7945 16.1591 42.446 16.1591C43.0483 16.1591 43.5729 16.2879 44.0199 16.5455C44.4706 16.803 44.8191 17.1761 45.0653 17.6648C45.3153 18.1534 45.4384 18.7462 45.4347 19.4432V25H43.3778V19.7614C43.3778 19.178 43.2263 18.7216 42.9233 18.392C42.6241 18.0625 42.2093 17.8977 41.679 17.8977C41.3191 17.8977 40.9991 17.9773 40.7188 18.1364C40.4422 18.2917 40.2244 18.517 40.0653 18.8125C39.91 19.108 39.8324 19.4659 39.8324 19.8864ZM51.3892 25.1705C50.5142 25.1705 49.7585 24.9886 49.1222 24.625C48.4896 24.2576 48.0028 23.7386 47.6619 23.0682C47.321 22.3939 47.1506 21.6004 47.1506 20.6875C47.1506 19.7898 47.321 19.0019 47.6619 18.3239C48.0066 17.642 48.4877 17.1117 49.1051 16.733C49.7225 16.3504 50.4479 16.1591 51.2812 16.1591C51.8191 16.1591 52.3267 16.2462 52.804 16.4205C53.285 16.5909 53.7093 16.8561 54.0767 17.2159C54.4479 17.5758 54.7396 18.0341 54.9517 18.5909C55.1638 19.1439 55.2699 19.803 55.2699 20.5682V21.1989H48.1165V19.8125H53.2983C53.2945 19.4186 53.2093 19.0682 53.0426 18.7614C52.8759 18.4508 52.643 18.2064 52.3438 18.0284C52.0483 17.8504 51.7036 17.7614 51.3097 17.7614C50.8892 17.7614 50.5199 17.8636 50.2017 18.0682C49.8835 18.2689 49.6354 18.5341 49.4574 18.8636C49.2831 19.1894 49.1941 19.5473 49.1903 19.9375V21.1477C49.1903 21.6553 49.2831 22.0909 49.4688 22.4545C49.6544 22.8144 49.9138 23.0909 50.2472 23.2841C50.5805 23.4735 50.9706 23.5682 51.4176 23.5682C51.7169 23.5682 51.9877 23.5265 52.2301 23.4432C52.4725 23.3561 52.6828 23.2292 52.8608 23.0625C53.0388 22.8958 53.1733 22.6894 53.2642 22.4432L55.1847 22.6591C55.0634 23.1667 54.8324 23.6098 54.4915 23.9886C54.1544 24.3636 53.7225 24.6553 53.196 24.8636C52.6695 25.0682 52.0672 25.1705 51.3892 25.1705ZM61.4304 16.2727V17.8636H56.2713V16.2727H61.4304ZM57.5611 25V15.4489C57.5611 14.8617 57.6823 14.3731 57.9247 13.983C58.1709 13.5928 58.5005 13.3011 58.9134 13.108C59.3262 12.9148 59.7846 12.8182 60.2884 12.8182C60.6444 12.8182 60.9607 12.8466 61.2372 12.9034C61.5137 12.9602 61.7183 13.0114 61.8509 13.0568L61.4418 14.6477C61.3546 14.6212 61.2448 14.5947 61.1122 14.5682C60.9796 14.5379 60.8319 14.5227 60.669 14.5227C60.2865 14.5227 60.0156 14.6155 59.8565 14.8011C59.7012 14.983 59.6236 15.2443 59.6236 15.5852V25H57.5611ZM63.0412 25V16.2727H65.098V25H63.0412ZM63.2855 15.125L64.5582 12.5284H66.5696L64.8253 15.125H63.2855ZM71.0199 25.1705C70.1487 25.1705 69.4006 24.9792 68.7756 24.5966C68.1544 24.214 67.6752 23.6856 67.3381 23.0114C67.0047 22.3333 66.8381 21.553 66.8381 20.6705C66.8381 19.7841 67.0085 19.0019 67.3494 18.3239C67.6903 17.642 68.1714 17.1117 68.7926 16.733C69.4176 16.3504 70.1563 16.1591 71.0085 16.1591C71.7169 16.1591 72.3438 16.2898 72.8892 16.5511C73.4384 16.8087 73.8759 17.1742 74.2017 17.6477C74.5275 18.1174 74.7131 18.6667 74.7585 19.2955H72.7926C72.7131 18.875 72.5237 18.5246 72.2244 18.2443C71.929 17.9602 71.5331 17.8182 71.0369 17.8182C70.6165 17.8182 70.2472 17.9318 69.929 18.1591C69.6108 18.3826 69.3627 18.7045 69.1847 19.125C69.0104 19.5455 68.9233 20.0492 68.9233 20.6364C68.9233 21.2311 69.0104 21.7424 69.1847 22.1705C69.3589 22.5947 69.6032 22.9223 69.9176 23.1534C70.2358 23.3807 70.6089 23.4943 71.0369 23.4943C71.34 23.4943 71.6108 23.4375 71.8494 23.3239C72.0919 23.2064 72.2945 23.0379 72.4574 22.8182C72.6203 22.5985 72.732 22.3314 72.7926 22.017H74.7585C74.7093 22.6345 74.5275 23.1818 74.2131 23.6591C73.8987 24.1326 73.4706 24.5038 72.929 24.7727C72.3873 25.0379 71.7509 25.1705 71.0199 25.1705ZM76.4474 25V16.2727H78.5043V25H76.4474ZM77.4815 15.0341C77.1558 15.0341 76.8755 14.9261 76.6406 14.7102C76.4058 14.4905 76.2884 14.2273 76.2884 13.9205C76.2884 13.6098 76.4058 13.3466 76.6406 13.1307C76.8755 12.911 77.1558 12.8011 77.4815 12.8011C77.8111 12.8011 78.0914 12.911 78.3224 13.1307C78.5573 13.3466 78.6747 13.6098 78.6747 13.9205C78.6747 14.2273 78.5573 14.4905 78.3224 14.7102C78.0914 14.9261 77.8111 15.0341 77.4815 15.0341ZM84.4261 25.1705C83.5739 25.1705 82.8352 24.983 82.2102 24.608C81.5852 24.233 81.1004 23.7083 80.7557 23.0341C80.4148 22.3598 80.2443 21.572 80.2443 20.6705C80.2443 19.7689 80.4148 18.9792 80.7557 18.3011C81.1004 17.6231 81.5852 17.0966 82.2102 16.7216C82.8352 16.3466 83.5739 16.1591 84.4261 16.1591C85.2784 16.1591 86.017 16.3466 86.642 16.7216C87.267 17.0966 87.75 17.6231 88.0909 18.3011C88.4356 18.9792 88.608 19.7689 88.608 20.6705C88.608 21.572 88.4356 22.3598 88.0909 23.0341C87.75 23.7083 87.267 24.233 86.642 24.608C86.017 24.983 85.2784 25.1705 84.4261 25.1705ZM84.4375 23.5227C84.8996 23.5227 85.286 23.3958 85.5966 23.142C85.9072 22.8845 86.1383 22.5398 86.2898 22.108C86.4451 21.6761 86.5227 21.1951 86.5227 20.6648C86.5227 20.1307 86.4451 19.6477 86.2898 19.2159C86.1383 18.7803 85.9072 18.4337 85.5966 18.1761C85.286 17.9186 84.8996 17.7898 84.4375 17.7898C83.964 17.7898 83.5701 17.9186 83.2557 18.1761C82.9451 18.4337 82.7121 18.7803 82.5568 19.2159C82.4053 19.6477 82.3295 20.1307 82.3295 20.6648C82.3295 21.1951 82.4053 21.6761 82.5568 22.108C82.7121 22.5398 82.9451 22.8845 83.2557 23.142C83.5701 23.3958 83.964 23.5227 84.4375 23.5227ZM97.2514 18.5795L95.3764 18.7841C95.3234 18.5947 95.2306 18.4167 95.098 18.25C94.9692 18.0833 94.795 17.9489 94.5753 17.8466C94.3556 17.7443 94.0866 17.6932 93.7685 17.6932C93.3404 17.6932 92.9806 17.786 92.6889 17.9716C92.401 18.1572 92.259 18.3977 92.2628 18.6932C92.259 18.947 92.3518 19.1534 92.5412 19.3125C92.7344 19.4716 93.0526 19.6023 93.4957 19.7045L94.9844 20.0227C95.8101 20.2008 96.4238 20.483 96.8253 20.8693C97.2306 21.2557 97.4351 21.7614 97.4389 22.3864C97.4351 22.9356 97.2741 23.4205 96.956 23.8409C96.6416 24.2576 96.2041 24.5833 95.6435 24.8182C95.0829 25.053 94.4389 25.1705 93.7116 25.1705C92.6435 25.1705 91.7836 24.947 91.1321 24.5C90.4806 24.0492 90.0923 23.4223 89.9673 22.6193L91.973 22.4261C92.0639 22.8201 92.2571 23.1174 92.5526 23.3182C92.848 23.5189 93.2325 23.6193 93.706 23.6193C94.1946 23.6193 94.5866 23.5189 94.8821 23.3182C95.1813 23.1174 95.331 22.8693 95.331 22.5739C95.331 22.3239 95.2344 22.1174 95.0412 21.9545C94.8518 21.7917 94.5563 21.6667 94.1548 21.5795L92.6662 21.267C91.8291 21.0928 91.2098 20.7992 90.8082 20.3864C90.4067 19.9697 90.2079 19.4432 90.2116 18.8068C90.2079 18.2689 90.3537 17.803 90.6491 17.4091C90.9484 17.0114 91.3632 16.7045 91.8935 16.4886C92.4276 16.2689 93.0431 16.1591 93.7401 16.1591C94.7628 16.1591 95.5677 16.3769 96.1548 16.8125C96.7457 17.2481 97.1113 17.8371 97.2514 18.5795ZM106.342 25.1534C105.657 25.1534 105.043 24.9773 104.501 24.625C103.96 24.2727 103.532 23.7614 103.217 23.0909C102.903 22.4205 102.746 21.6061 102.746 20.6477C102.746 19.678 102.905 18.8598 103.223 18.1932C103.545 17.5227 103.979 17.017 104.524 16.6761C105.07 16.3314 105.678 16.1591 106.348 16.1591C106.859 16.1591 107.28 16.2462 107.609 16.4205C107.939 16.5909 108.2 16.7973 108.393 17.0398C108.587 17.2784 108.736 17.5038 108.842 17.7159H108.928V13.3636H110.99V25H108.967V23.625H108.842C108.736 23.8371 108.583 24.0625 108.382 24.3011C108.181 24.536 107.916 24.7367 107.587 24.9034C107.257 25.0701 106.842 25.1534 106.342 25.1534ZM106.916 23.4659C107.352 23.4659 107.723 23.3485 108.03 23.1136C108.337 22.875 108.57 22.5436 108.729 22.1193C108.888 21.6951 108.967 21.2008 108.967 20.6364C108.967 20.072 108.888 19.5814 108.729 19.1648C108.573 18.7481 108.342 18.4242 108.036 18.1932C107.732 17.9621 107.359 17.8466 106.916 17.8466C106.458 17.8466 106.075 17.9659 105.768 18.2045C105.462 18.4432 105.231 18.7727 105.075 19.1932C104.92 19.6136 104.842 20.0947 104.842 20.6364C104.842 21.1818 104.92 21.6686 105.075 22.0966C105.234 22.5208 105.467 22.8561 105.774 23.1023C106.085 23.3447 106.465 23.4659 106.916 23.4659ZM116.989 25.1705C116.136 25.1705 115.398 24.983 114.773 24.608C114.148 24.233 113.663 23.7083 113.318 23.0341C112.977 22.3598 112.807 21.572 112.807 20.6705C112.807 19.7689 112.977 18.9792 113.318 18.3011C113.663 17.6231 114.148 17.0966 114.773 16.7216C115.398 16.3466 116.136 16.1591 116.989 16.1591C117.841 16.1591 118.58 16.3466 119.205 16.7216C119.83 17.0966 120.313 17.6231 120.653 18.3011C120.998 18.9792 121.17 19.7689 121.17 20.6705C121.17 21.572 120.998 22.3598 120.653 23.0341C120.313 23.7083 119.83 24.233 119.205 24.608C118.58 24.983 117.841 25.1705 116.989 25.1705ZM117 23.5227C117.462 23.5227 117.848 23.3958 118.159 23.142C118.47 22.8845 118.701 22.5398 118.852 22.108C119.008 21.6761 119.085 21.1951 119.085 20.6648C119.085 20.1307 119.008 19.6477 118.852 19.2159C118.701 18.7803 118.47 18.4337 118.159 18.1761C117.848 17.9186 117.462 17.7898 117 17.7898C116.527 17.7898 116.133 17.9186 115.818 18.1761C115.508 18.4337 115.275 18.7803 115.119 19.2159C114.968 19.6477 114.892 20.1307 114.892 20.6648C114.892 21.1951 114.968 21.6761 115.119 22.108C115.275 22.5398 115.508 22.8845 115.818 23.142C116.133 23.3958 116.527 23.5227 117 23.5227ZM133.783 18.5795L131.908 18.7841C131.855 18.5947 131.762 18.4167 131.629 18.25C131.5 18.0833 131.326 17.9489 131.107 17.8466C130.887 17.7443 130.618 17.6932 130.3 17.6932C129.872 17.6932 129.512 17.786 129.22 17.9716C128.932 18.1572 128.79 18.3977 128.794 18.6932C128.79 18.947 128.883 19.1534 129.072 19.3125C129.266 19.4716 129.584 19.6023 130.027 19.7045L131.516 20.0227C132.341 20.2008 132.955 20.483 133.357 20.8693C133.762 21.2557 133.966 21.7614 133.97 22.3864C133.966 22.9356 133.805 23.4205 133.487 23.8409C133.173 24.2576 132.735 24.5833 132.175 24.8182C131.614 25.053 130.97 25.1705 130.243 25.1705C129.175 25.1705 128.315 24.947 127.663 24.5C127.012 24.0492 126.624 23.4223 126.499 22.6193L128.504 22.4261C128.595 22.8201 128.788 23.1174 129.084 23.3182C129.379 23.5189 129.764 23.6193 130.237 23.6193C130.726 23.6193 131.118 23.5189 131.413 23.3182C131.713 23.1174 131.862 22.8693 131.862 22.5739C131.862 22.3239 131.766 22.1174 131.572 21.9545C131.383 21.7917 131.088 21.6667 130.686 21.5795L129.197 21.267C128.36 21.0928 127.741 20.7992 127.339 20.3864C126.938 19.9697 126.739 19.4432 126.743 18.8068C126.739 18.2689 126.885 17.803 127.18 17.4091C127.48 17.0114 127.894 16.7045 128.425 16.4886C128.959 16.2689 129.574 16.1591 130.271 16.1591C131.294 16.1591 132.099 16.3769 132.686 16.8125C133.277 17.2481 133.643 17.8371 133.783 18.5795ZM139.53 25.1705C138.655 25.1705 137.899 24.9886 137.263 24.625C136.63 24.2576 136.143 23.7386 135.803 23.0682C135.462 22.3939 135.291 21.6004 135.291 20.6875C135.291 19.7898 135.462 19.0019 135.803 18.3239C136.147 17.642 136.628 17.1117 137.246 16.733C137.863 16.3504 138.589 16.1591 139.422 16.1591C139.96 16.1591 140.467 16.2462 140.945 16.4205C141.426 16.5909 141.85 16.8561 142.217 17.2159C142.589 17.5758 142.88 18.0341 143.092 18.5909C143.304 19.1439 143.411 19.803 143.411 20.5682V21.1989H136.257V19.8125H141.439C141.435 19.4186 141.35 19.0682 141.183 18.7614C141.017 18.4508 140.784 18.2064 140.484 18.0284C140.189 17.8504 139.844 17.7614 139.45 17.7614C139.03 17.7614 138.661 17.8636 138.342 18.0682C138.024 18.2689 137.776 18.5341 137.598 18.8636C137.424 19.1894 137.335 19.5473 137.331 19.9375V21.1477C137.331 21.6553 137.424 22.0909 137.609 22.4545C137.795 22.8144 138.054 23.0909 138.388 23.2841C138.721 23.4735 139.111 23.5682 139.558 23.5682C139.857 23.5682 140.128 23.5265 140.371 23.4432C140.613 23.3561 140.823 23.2292 141.001 23.0625C141.179 22.8958 141.314 22.6894 141.405 22.4432L143.325 22.6591C143.204 23.1667 142.973 23.6098 142.632 23.9886C142.295 24.3636 141.863 24.6553 141.337 24.8636C140.81 25.0682 140.208 25.1705 139.53 25.1705ZM150.713 21.3295V16.2727H152.77V25H150.776V23.4489H150.685C150.488 23.9375 150.164 24.3371 149.713 24.6477C149.266 24.9583 148.715 25.1136 148.06 25.1136C147.488 25.1136 146.982 24.9867 146.543 24.733C146.107 24.4754 145.766 24.1023 145.52 23.6136C145.274 23.1212 145.151 22.5265 145.151 21.8295V16.2727H147.207V21.5114C147.207 22.0644 147.359 22.5038 147.662 22.8295C147.965 23.1553 148.363 23.3182 148.855 23.3182C149.158 23.3182 149.452 23.2443 149.736 23.0966C150.02 22.9489 150.253 22.7292 150.435 22.4375C150.62 22.142 150.713 21.7727 150.713 21.3295ZM158.854 28.2727V16.2727H160.876V17.7159H160.996C161.102 17.5038 161.251 17.2784 161.445 17.0398C161.638 16.7973 161.899 16.5909 162.229 16.4205C162.558 16.2462 162.979 16.1591 163.49 16.1591C164.164 16.1591 164.772 16.3314 165.314 16.6761C165.859 17.017 166.291 17.5227 166.609 18.1932C166.931 18.8598 167.092 19.678 167.092 20.6477C167.092 21.6061 166.935 22.4205 166.621 23.0909C166.306 23.7614 165.878 24.2727 165.337 24.625C164.795 24.9773 164.181 25.1534 163.496 25.1534C162.996 25.1534 162.581 25.0701 162.251 24.9034C161.922 24.7367 161.657 24.536 161.456 24.3011C161.259 24.0625 161.106 23.8371 160.996 23.625H160.911V28.2727H158.854ZM160.871 20.6364C160.871 21.2008 160.95 21.6951 161.109 22.1193C161.272 22.5436 161.505 22.875 161.808 23.1136C162.115 23.3485 162.486 23.4659 162.922 23.4659C163.376 23.4659 163.757 23.3447 164.064 23.1023C164.371 22.8561 164.602 22.5208 164.757 22.0966C164.916 21.6686 164.996 21.1818 164.996 20.6364C164.996 20.0947 164.918 19.6136 164.763 19.1932C164.607 18.7727 164.376 18.4432 164.07 18.2045C163.763 17.9659 163.38 17.8466 162.922 17.8466C162.482 17.8466 162.109 17.9621 161.803 18.1932C161.496 18.4242 161.263 18.7481 161.104 19.1648C160.948 19.5814 160.871 20.072 160.871 20.6364ZM170.911 13.3636V25H168.854V13.3636H170.911ZM175.537 25.1761C174.984 25.1761 174.486 25.0777 174.043 24.8807C173.603 24.6799 173.255 24.3845 172.997 23.9943C172.743 23.6042 172.616 23.1231 172.616 22.5511C172.616 22.0587 172.707 21.6515 172.889 21.3295C173.071 21.0076 173.319 20.75 173.634 20.5568C173.948 20.3636 174.302 20.2178 174.696 20.1193C175.094 20.017 175.505 19.9432 175.929 19.8977C176.44 19.8447 176.855 19.7973 177.173 19.7557C177.491 19.7102 177.723 19.642 177.866 19.5511C178.014 19.4564 178.088 19.3106 178.088 19.1136V19.0795C178.088 18.6515 177.961 18.3201 177.707 18.0852C177.454 17.8504 177.088 17.733 176.611 17.733C176.107 17.733 175.707 17.8428 175.412 18.0625C175.12 18.2822 174.923 18.5417 174.821 18.8409L172.901 18.5682C173.052 18.0379 173.302 17.5947 173.651 17.2386C173.999 16.8788 174.425 16.6098 174.929 16.4318C175.433 16.25 175.99 16.1591 176.599 16.1591C177.02 16.1591 177.438 16.2083 177.855 16.3068C178.272 16.4053 178.652 16.5682 178.997 16.7955C179.342 17.0189 179.618 17.3239 179.827 17.7102C180.039 18.0966 180.145 18.5795 180.145 19.1591V25H178.168V23.8011H178.099C177.974 24.0436 177.798 24.2708 177.571 24.483C177.348 24.6913 177.065 24.8598 176.724 24.9886C176.387 25.1136 175.991 25.1761 175.537 25.1761ZM176.071 23.6648C176.484 23.6648 176.842 23.5833 177.145 23.4205C177.448 23.2538 177.681 23.0341 177.844 22.7614C178.01 22.4886 178.094 22.1913 178.094 21.8693V20.8409C178.029 20.8939 177.92 20.9432 177.764 20.9886C177.613 21.0341 177.442 21.0739 177.253 21.108C177.063 21.142 176.876 21.1723 176.69 21.1989C176.505 21.2254 176.344 21.2481 176.207 21.267C175.901 21.3087 175.626 21.3769 175.384 21.4716C175.141 21.5663 174.95 21.6989 174.81 21.8693C174.67 22.036 174.599 22.2519 174.599 22.517C174.599 22.8958 174.738 23.1818 175.014 23.375C175.291 23.5682 175.643 23.6648 176.071 23.6648ZM184.27 19.8864V25H182.213V16.2727H184.179V17.7557H184.281C184.482 17.267 184.802 16.8788 185.241 16.5909C185.685 16.303 186.232 16.1591 186.884 16.1591C187.486 16.1591 188.01 16.2879 188.457 16.5455C188.908 16.803 189.257 17.1761 189.503 17.6648C189.753 18.1534 189.876 18.7462 189.872 19.4432V25H187.815V19.7614C187.815 19.178 187.664 18.7216 187.361 18.392C187.062 18.0625 186.647 17.8977 186.116 17.8977C185.757 17.8977 185.437 17.9773 185.156 18.1364C184.88 18.2917 184.662 18.517 184.503 18.8125C184.348 19.108 184.27 19.4659 184.27 19.8864ZM195.77 25.1705C194.918 25.1705 194.179 24.983 193.554 24.608C192.929 24.233 192.444 23.7083 192.099 23.0341C191.759 22.3598 191.588 21.572 191.588 20.6705C191.588 19.7689 191.759 18.9792 192.099 18.3011C192.444 17.6231 192.929 17.0966 193.554 16.7216C194.179 16.3466 194.918 16.1591 195.77 16.1591C196.622 16.1591 197.361 16.3466 197.986 16.7216C198.611 17.0966 199.094 17.6231 199.435 18.3011C199.779 18.9792 199.952 19.7689 199.952 20.6705C199.952 21.572 199.779 22.3598 199.435 23.0341C199.094 23.7083 198.611 24.233 197.986 24.608C197.361 24.983 196.622 25.1705 195.77 25.1705ZM195.781 23.5227C196.243 23.5227 196.63 23.3958 196.94 23.142C197.251 22.8845 197.482 22.5398 197.634 22.108C197.789 21.6761 197.866 21.1951 197.866 20.6648C197.866 20.1307 197.789 19.6477 197.634 19.2159C197.482 18.7803 197.251 18.4337 196.94 18.1761C196.63 17.9186 196.243 17.7898 195.781 17.7898C195.308 17.7898 194.914 17.9186 194.599 18.1761C194.289 18.4337 194.056 18.7803 193.901 19.2159C193.749 19.6477 193.673 20.1307 193.673 20.6648C193.673 21.1951 193.749 21.6761 193.901 22.108C194.056 22.5398 194.289 22.8845 194.599 23.142C194.914 23.3958 195.308 23.5227 195.781 23.5227ZM202.964 25.125C202.62 25.125 202.324 25.0038 202.078 24.7614C201.832 24.5189 201.711 24.2235 201.714 23.875C201.711 23.5341 201.832 23.2424 202.078 23C202.324 22.7576 202.62 22.6364 202.964 22.6364C203.298 22.6364 203.588 22.7576 203.834 23C204.084 23.2424 204.211 23.5341 204.214 23.875C204.211 24.1061 204.15 24.3163 204.033 24.5057C203.919 24.6951 203.768 24.8466 203.578 24.9602C203.393 25.0701 203.188 25.125 202.964 25.125ZM202.964 18.8977C202.62 18.8977 202.324 18.7765 202.078 18.5341C201.832 18.2879 201.711 17.9924 201.714 17.6477C201.711 17.3068 201.832 17.0152 202.078 16.7727C202.324 16.5265 202.62 16.4034 202.964 16.4034C203.298 16.4034 203.588 16.5265 203.834 16.7727C204.084 17.0152 204.211 17.3068 204.214 17.6477C204.211 17.875 204.15 18.0833 204.033 18.2727C203.919 18.4621 203.768 18.6136 203.578 18.7273C203.393 18.8409 203.188 18.8977 202.964 18.8977Z" fill="white"/>
<path d="M39.4567 59.1307V57.3636H48.7408V59.1307H45.1442V69H43.0533V59.1307H39.4567ZM53.0376 69.1705C52.1626 69.1705 51.407 68.9886 50.7706 68.625C50.138 68.2576 49.6513 67.7386 49.3104 67.0682C48.9695 66.3939 48.799 65.6004 48.799 64.6875C48.799 63.7898 48.9695 63.0019 49.3104 62.3239C49.6551 61.642 50.1361 61.1117 50.7536 60.733C51.371 60.3504 52.0964 60.1591 52.9297 60.1591C53.4676 60.1591 53.9751 60.2462 54.4524 60.4205C54.9335 60.5909 55.3577 60.8561 55.7251 61.2159C56.0964 61.5758 56.388 62.0341 56.6001 62.5909C56.8123 63.1439 56.9183 63.803 56.9183 64.5682V65.1989H49.7649V63.8125H54.9467C54.9429 63.4186 54.8577 63.0682 54.6911 62.7614C54.5244 62.4508 54.2914 62.2064 53.9922 62.0284C53.6967 61.8504 53.352 61.7614 52.9581 61.7614C52.5376 61.7614 52.1683 61.8636 51.8501 62.0682C51.532 62.2689 51.2839 62.5341 51.1058 62.8636C50.9316 63.1894 50.8426 63.5473 50.8388 63.9375V65.1477C50.8388 65.6553 50.9316 66.0909 51.1172 66.4545C51.3028 66.8144 51.5623 67.0909 51.8956 67.2841C52.2289 67.4735 52.6191 67.5682 53.0661 67.5682C53.3653 67.5682 53.6361 67.5265 53.8786 67.4432C54.121 67.3561 54.3312 67.2292 54.5092 67.0625C54.6873 66.8958 54.8217 66.6894 54.9126 66.4432L56.8331 66.6591C56.7119 67.1667 56.4808 67.6098 56.1399 67.9886C55.8028 68.3636 55.371 68.6553 54.8445 68.8636C54.3179 69.0682 53.7157 69.1705 53.0376 69.1705ZM62.4652 69.1705C61.594 69.1705 60.8459 68.9792 60.2209 68.5966C59.5997 68.214 59.1205 67.6856 58.7834 67.0114C58.45 66.3333 58.2834 65.553 58.2834 64.6705C58.2834 63.7841 58.4538 63.0019 58.7947 62.3239C59.1357 61.642 59.6167 61.1117 60.2379 60.733C60.8629 60.3504 61.6016 60.1591 62.4538 60.1591C63.1622 60.1591 63.7891 60.2898 64.3345 60.5511C64.8838 60.8087 65.3213 61.1742 65.647 61.6477C65.9728 62.1174 66.1584 62.6667 66.2038 63.2955H64.2379C64.1584 62.875 63.969 62.5246 63.6697 62.2443C63.3743 61.9602 62.9785 61.8182 62.4822 61.8182C62.0618 61.8182 61.6925 61.9318 61.3743 62.1591C61.0561 62.3826 60.808 62.7045 60.63 63.125C60.4557 63.5455 60.3686 64.0492 60.3686 64.6364C60.3686 65.2311 60.4557 65.7424 60.63 66.1705C60.8042 66.5947 61.0485 66.9223 61.3629 67.1534C61.6811 67.3807 62.0542 67.4943 62.4822 67.4943C62.7853 67.4943 63.0561 67.4375 63.2947 67.3239C63.5372 67.2064 63.7398 67.0379 63.9027 66.8182C64.0656 66.5985 64.1773 66.3314 64.2379 66.017H66.2038C66.1546 66.6345 65.9728 67.1818 65.6584 67.6591C65.344 68.1326 64.916 68.5038 64.3743 68.7727C63.8326 69.0379 63.1963 69.1705 62.4652 69.1705ZM69.9496 63.8864V69H67.8928V60.2727H69.8587V61.7557H69.9609C70.1617 61.267 70.4818 60.8788 70.9212 60.5909C71.3643 60.303 71.9117 60.1591 72.5632 60.1591C73.1655 60.1591 73.6901 60.2879 74.1371 60.5455C74.5878 60.803 74.9363 61.1761 75.1825 61.6648C75.4325 62.1534 75.5556 62.7462 75.5518 63.4432V69H73.495V63.7614C73.495 63.178 73.3435 62.7216 73.0405 62.392C72.7412 62.0625 72.3265 61.8977 71.7962 61.8977C71.4363 61.8977 71.1162 61.9773 70.8359 62.1364C70.5594 62.2917 70.3416 62.517 70.1825 62.8125C70.0272 63.108 69.9496 63.4659 69.9496 63.8864ZM81.4496 69.1705C80.5973 69.1705 79.8587 68.983 79.2337 68.608C78.6087 68.233 78.1238 67.7083 77.7791 67.0341C77.4382 66.3598 77.2678 65.572 77.2678 64.6705C77.2678 63.7689 77.4382 62.9792 77.7791 62.3011C78.1238 61.6231 78.6087 61.0966 79.2337 60.7216C79.8587 60.3466 80.5973 60.1591 81.4496 60.1591C82.3018 60.1591 83.0405 60.3466 83.6655 60.7216C84.2905 61.0966 84.7734 61.6231 85.1143 62.3011C85.459 62.9792 85.6314 63.7689 85.6314 64.6705C85.6314 65.572 85.459 66.3598 85.1143 67.0341C84.7734 67.7083 84.2905 68.233 83.6655 68.608C83.0405 68.983 82.3018 69.1705 81.4496 69.1705ZM81.4609 67.5227C81.9231 67.5227 82.3094 67.3958 82.62 67.142C82.9306 66.8845 83.1617 66.5398 83.3132 66.108C83.4685 65.6761 83.5462 65.1951 83.5462 64.6648C83.5462 64.1307 83.4685 63.6477 83.3132 63.2159C83.1617 62.7803 82.9306 62.4337 82.62 62.1761C82.3094 61.9186 81.9231 61.7898 81.4609 61.7898C80.9875 61.7898 80.5935 61.9186 80.2791 62.1761C79.9685 62.4337 79.7356 62.7803 79.5803 63.2159C79.4287 63.6477 79.353 64.1307 79.353 64.6648C79.353 65.1951 79.4287 65.6761 79.5803 66.108C79.7356 66.5398 79.9685 66.8845 80.2791 67.142C80.5935 67.3958 80.9875 67.5227 81.4609 67.5227ZM89.4339 57.3636V69H87.3771V57.3636H89.4339ZM95.3558 69.1705C94.5036 69.1705 93.7649 68.983 93.1399 68.608C92.5149 68.233 92.0301 67.7083 91.6854 67.0341C91.3445 66.3598 91.174 65.572 91.174 64.6705C91.174 63.7689 91.3445 62.9792 91.6854 62.3011C92.0301 61.6231 92.5149 61.0966 93.1399 60.7216C93.7649 60.3466 94.5036 60.1591 95.3558 60.1591C96.2081 60.1591 96.9467 60.3466 97.5717 60.7216C98.1967 61.0966 98.6797 61.6231 99.0206 62.3011C99.3653 62.9792 99.5376 63.7689 99.5376 64.6705C99.5376 65.572 99.3653 66.3598 99.0206 67.0341C98.6797 67.7083 98.1967 68.233 97.5717 68.608C96.9467 68.983 96.2081 69.1705 95.3558 69.1705ZM95.3672 67.5227C95.8293 67.5227 96.2157 67.3958 96.5263 67.142C96.8369 66.8845 97.0679 66.5398 97.2195 66.108C97.3748 65.6761 97.4524 65.1951 97.4524 64.6648C97.4524 64.1307 97.3748 63.6477 97.2195 63.2159C97.0679 62.7803 96.8369 62.4337 96.5263 62.1761C96.2157 61.9186 95.8293 61.7898 95.3672 61.7898C94.8937 61.7898 94.4998 61.9186 94.1854 62.1761C93.8748 62.4337 93.6418 62.7803 93.4865 63.2159C93.335 63.6477 93.2592 64.1307 93.2592 64.6648C93.2592 65.1951 93.335 65.6761 93.4865 66.108C93.6418 66.5398 93.8748 66.8845 94.1854 67.142C94.4998 67.3958 94.8937 67.5227 95.3672 67.5227ZM105.079 72.4545C104.34 72.4545 103.706 72.3542 103.175 72.1534C102.645 71.9564 102.219 71.6913 101.897 71.358C101.575 71.0246 101.352 70.6553 101.227 70.25L103.079 69.8011C103.162 69.9716 103.283 70.1402 103.442 70.3068C103.602 70.4773 103.816 70.6174 104.085 70.7273C104.357 70.8409 104.7 70.8977 105.113 70.8977C105.696 70.8977 106.179 70.7557 106.562 70.4716C106.944 70.1913 107.136 69.7292 107.136 69.0852V67.4318H107.033C106.927 67.6439 106.772 67.8617 106.567 68.0852C106.367 68.3087 106.1 68.4962 105.766 68.6477C105.437 68.7992 105.022 68.875 104.522 68.875C103.852 68.875 103.244 68.7178 102.698 68.4034C102.156 68.0852 101.725 67.6117 101.403 66.983C101.085 66.3504 100.925 65.5587 100.925 64.608C100.925 63.6496 101.085 62.8409 101.403 62.1818C101.725 61.5189 102.158 61.017 102.704 60.6761C103.249 60.3314 103.857 60.1591 104.528 60.1591C105.039 60.1591 105.46 60.2462 105.789 60.4205C106.122 60.5909 106.388 60.7973 106.585 61.0398C106.781 61.2784 106.931 61.5038 107.033 61.7159H107.147V60.2727H109.175V69.142C109.175 69.8883 108.997 70.5057 108.641 70.9943C108.285 71.483 107.799 71.8485 107.181 72.0909C106.564 72.3333 105.863 72.4545 105.079 72.4545ZM105.096 67.2614C105.531 67.2614 105.903 67.1553 106.21 66.9432C106.516 66.7311 106.749 66.4261 106.908 66.0284C107.067 65.6307 107.147 65.1534 107.147 64.5966C107.147 64.0473 107.067 63.5663 106.908 63.1534C106.753 62.7405 106.522 62.4205 106.215 62.1932C105.912 61.9621 105.539 61.8466 105.096 61.8466C104.638 61.8466 104.255 61.9659 103.948 62.2045C103.641 62.4432 103.41 62.7708 103.255 63.1875C103.1 63.6004 103.022 64.0701 103.022 64.5966C103.022 65.1307 103.1 65.5985 103.255 66C103.414 66.3977 103.647 66.7083 103.954 66.9318C104.264 67.1515 104.645 67.2614 105.096 67.2614ZM111.283 69V60.2727H113.34V69H111.283ZM112.317 59.0341C111.992 59.0341 111.711 58.9261 111.477 58.7102C111.242 58.4905 111.124 58.2273 111.124 57.9205C111.124 57.6098 111.242 57.3466 111.477 57.1307C111.711 56.911 111.992 56.8011 112.317 56.8011C112.647 56.8011 112.927 56.911 113.158 57.1307C113.393 57.3466 113.511 57.6098 113.511 57.9205C113.511 58.2273 113.393 58.4905 113.158 58.7102C112.927 58.9261 112.647 59.0341 112.317 59.0341ZM117.967 69.1761C117.414 69.1761 116.915 69.0777 116.472 68.8807C116.033 68.6799 115.684 68.3845 115.427 67.9943C115.173 67.6042 115.046 67.1231 115.046 66.5511C115.046 66.0587 115.137 65.6515 115.319 65.3295C115.501 65.0076 115.749 64.75 116.063 64.5568C116.378 64.3636 116.732 64.2178 117.126 64.1193C117.523 64.017 117.934 63.9432 118.359 63.8977C118.87 63.8447 119.285 63.7973 119.603 63.7557C119.921 63.7102 120.152 63.642 120.296 63.5511C120.444 63.4564 120.518 63.3106 120.518 63.1136V63.0795C120.518 62.6515 120.391 62.3201 120.137 62.0852C119.883 61.8504 119.518 61.733 119.04 61.733C118.537 61.733 118.137 61.8428 117.842 62.0625C117.55 62.2822 117.353 62.5417 117.251 62.8409L115.33 62.5682C115.482 62.0379 115.732 61.5947 116.08 61.2386C116.429 60.8788 116.855 60.6098 117.359 60.4318C117.862 60.25 118.419 60.1591 119.029 60.1591C119.45 60.1591 119.868 60.2083 120.285 60.3068C120.701 60.4053 121.082 60.5682 121.427 60.7955C121.772 61.0189 122.048 61.3239 122.256 61.7102C122.469 62.0966 122.575 62.5795 122.575 63.1591V69H120.597V67.8011H120.529C120.404 68.0436 120.228 68.2708 120.001 68.483C119.777 68.6913 119.495 68.8598 119.154 68.9886C118.817 69.1136 118.421 69.1761 117.967 69.1761ZM118.501 67.6648C118.914 67.6648 119.272 67.5833 119.575 67.4205C119.878 67.2538 120.111 67.0341 120.273 66.7614C120.44 66.4886 120.523 66.1913 120.523 65.8693V64.8409C120.459 64.8939 120.349 64.9432 120.194 64.9886C120.042 65.0341 119.872 65.0739 119.683 65.108C119.493 65.142 119.306 65.1723 119.12 65.1989C118.934 65.2254 118.773 65.2481 118.637 65.267C118.33 65.3087 118.056 65.3769 117.813 65.4716C117.571 65.5663 117.379 65.6989 117.239 65.8693C117.099 66.036 117.029 66.2519 117.029 66.517C117.029 66.8958 117.167 67.1818 117.444 67.375C117.72 67.5682 118.073 67.6648 118.501 67.6648ZM131.151 69L127.867 57.3636H130.134L132.231 65.9148H132.339L134.577 57.3636H136.64L138.884 65.9205H138.987L141.083 57.3636H143.35L140.066 69H137.987L135.657 60.8352H135.566L133.231 69H131.151ZM144.721 69V60.2727H146.778V69H144.721ZM145.755 59.0341C145.429 59.0341 145.149 58.9261 144.914 58.7102C144.679 58.4905 144.562 58.2273 144.562 57.9205C144.562 57.6098 144.679 57.3466 144.914 57.1307C145.149 56.911 145.429 56.8011 145.755 56.8011C146.085 56.8011 146.365 56.911 146.596 57.1307C146.831 57.3466 146.948 57.6098 146.948 57.9205C146.948 58.2273 146.831 58.4905 146.596 58.7102C146.365 58.9261 146.085 59.0341 145.755 59.0341ZM154.183 63.3068V65H148.944V63.3068H154.183ZM156.437 69V57.3636H163.891V59.1307H158.545V62.2898H163.38V64.0568H158.545V69H156.437ZM165.721 69V60.2727H167.778V69H165.721ZM166.755 59.0341C166.429 59.0341 166.149 58.9261 165.914 58.7102C165.679 58.4905 165.562 58.2273 165.562 57.9205C165.562 57.6098 165.679 57.3466 165.914 57.1307C166.149 56.911 166.429 56.8011 166.755 56.8011C167.085 56.8011 167.365 56.911 167.596 57.1307C167.831 57.3466 167.948 57.6098 167.948 57.9205C167.948 58.2273 167.831 58.4905 167.596 58.7102C167.365 58.9261 167.085 59.0341 166.755 59.0341ZM178.1 69.1591C177.543 69.1553 177 69.0587 176.469 68.8693C175.939 68.6761 175.462 68.3636 175.038 67.9318C174.613 67.4962 174.276 66.9186 174.026 66.1989C173.776 65.4754 173.653 64.5795 173.657 63.5114C173.657 62.5152 173.763 61.6269 173.975 60.8466C174.187 60.0663 174.492 59.4072 174.89 58.8693C175.288 58.3277 175.767 57.9148 176.327 57.6307C176.892 57.3466 177.522 57.2045 178.219 57.2045C178.951 57.2045 179.598 57.3485 180.163 57.6364C180.731 57.9242 181.189 58.3182 181.538 58.8182C181.886 59.3144 182.102 59.875 182.185 60.5H180.112C180.005 60.053 179.788 59.697 179.458 59.4318C179.132 59.1629 178.719 59.0284 178.219 59.0284C177.413 59.0284 176.791 59.3788 176.356 60.0795C175.924 60.7803 175.706 61.7424 175.702 62.9659H175.782C175.968 62.6326 176.208 62.3466 176.504 62.108C176.799 61.8693 177.132 61.6856 177.504 61.5568C177.879 61.4242 178.274 61.358 178.691 61.358C179.373 61.358 179.985 61.5208 180.526 61.8466C181.072 62.1723 181.504 62.6212 181.822 63.1932C182.14 63.7614 182.297 64.4129 182.293 65.1477C182.297 65.9129 182.123 66.6004 181.771 67.2102C181.418 67.8163 180.928 68.2936 180.299 68.642C179.67 68.9905 178.937 69.1629 178.1 69.1591ZM178.089 67.4545C178.502 67.4545 178.871 67.3542 179.197 67.1534C179.522 66.9527 179.78 66.6818 179.969 66.3409C180.159 66 180.252 65.6174 180.248 65.1932C180.252 64.7765 180.161 64.3996 179.975 64.0625C179.793 63.7254 179.541 63.4583 179.219 63.2614C178.897 63.0644 178.53 62.9659 178.117 62.9659C177.81 62.9659 177.524 63.0246 177.259 63.142C176.994 63.2595 176.763 63.4223 176.566 63.6307C176.369 63.8352 176.214 64.0739 176.1 64.3466C175.99 64.6155 175.933 64.9034 175.93 65.2102C175.933 65.6155 176.028 65.9886 176.214 66.3295C176.399 66.6705 176.655 66.9432 176.981 67.1477C177.307 67.3523 177.676 67.4545 178.089 67.4545Z" fill="white"/>
<path d="M11.3729 101.364V113H9.26491V101.364H11.3729ZM15.6214 107.886V113H13.5646V104.273H15.5305V105.756H15.6328C15.8336 105.267 16.1536 104.879 16.593 104.591C17.0362 104.303 17.5836 104.159 18.2351 104.159C18.8374 104.159 19.362 104.288 19.8089 104.545C20.2597 104.803 20.6082 105.176 20.8544 105.665C21.1044 106.153 21.2275 106.746 21.2237 107.443V113H19.1669V107.761C19.1669 107.178 19.0154 106.722 18.7124 106.392C18.4131 106.062 17.9983 105.898 17.468 105.898C17.1082 105.898 16.7881 105.977 16.5078 106.136C16.2313 106.292 16.0135 106.517 15.8544 106.812C15.6991 107.108 15.6214 107.466 15.6214 107.886ZM27.6726 104.273V105.864H22.6555V104.273H27.6726ZM23.8942 102.182H25.951V110.375C25.951 110.652 25.9927 110.864 26.076 111.011C26.1631 111.155 26.2768 111.254 26.4169 111.307C26.5571 111.36 26.7124 111.386 26.8828 111.386C27.0116 111.386 27.129 111.377 27.2351 111.358C27.3449 111.339 27.4283 111.322 27.4851 111.307L27.8317 112.915C27.7218 112.953 27.5646 112.994 27.3601 113.04C27.1593 113.085 26.9131 113.112 26.6214 113.119C26.1063 113.134 25.6423 113.057 25.2294 112.886C24.8165 112.712 24.4889 112.443 24.2464 112.08C24.0078 111.716 23.8904 111.261 23.8942 110.716V102.182ZM33.1626 113.17C32.2876 113.17 31.532 112.989 30.8956 112.625C30.263 112.258 29.7763 111.739 29.4354 111.068C29.0945 110.394 28.924 109.6 28.924 108.688C28.924 107.79 29.0945 107.002 29.4354 106.324C29.7801 105.642 30.2611 105.112 30.8786 104.733C31.496 104.35 32.2214 104.159 33.0547 104.159C33.5926 104.159 34.1001 104.246 34.5774 104.42C35.0585 104.591 35.4827 104.856 35.8501 105.216C36.2214 105.576 36.513 106.034 36.7251 106.591C36.9373 107.144 37.0433 107.803 37.0433 108.568V109.199H29.8899V107.812H35.0717C35.0679 107.419 34.9827 107.068 34.8161 106.761C34.6494 106.451 34.4164 106.206 34.1172 106.028C33.8217 105.85 33.477 105.761 33.0831 105.761C32.6626 105.761 32.2933 105.864 31.9751 106.068C31.657 106.269 31.4089 106.534 31.2308 106.864C31.0566 107.189 30.9676 107.547 30.9638 107.938V109.148C30.9638 109.655 31.0566 110.091 31.2422 110.455C31.4278 110.814 31.6873 111.091 32.0206 111.284C32.3539 111.473 32.7441 111.568 33.1911 111.568C33.4903 111.568 33.7611 111.527 34.0036 111.443C34.246 111.356 34.4562 111.229 34.6342 111.062C34.8123 110.896 34.9467 110.689 35.0376 110.443L36.9581 110.659C36.8369 111.167 36.6058 111.61 36.2649 111.989C35.9278 112.364 35.496 112.655 34.9695 112.864C34.4429 113.068 33.8407 113.17 33.1626 113.17ZM38.7834 113V104.273H40.7777V105.727H40.8686C41.0277 105.223 41.3004 104.835 41.6868 104.562C42.0769 104.286 42.522 104.148 43.022 104.148C43.1357 104.148 43.2625 104.153 43.4027 104.165C43.5466 104.172 43.666 104.186 43.7607 104.205V106.097C43.6735 106.066 43.5353 106.04 43.3459 106.017C43.1603 105.991 42.9804 105.977 42.8061 105.977C42.4311 105.977 42.094 106.059 41.7947 106.222C41.4993 106.381 41.2663 106.602 41.0959 106.886C40.9254 107.17 40.8402 107.498 40.8402 107.869V113H38.7834ZM47.1839 107.886V113H45.1271V104.273H47.093V105.756H47.1953C47.3961 105.267 47.7161 104.879 48.1555 104.591C48.5987 104.303 49.1461 104.159 49.7976 104.159C50.3999 104.159 50.9245 104.288 51.3714 104.545C51.8222 104.803 52.1707 105.176 52.4169 105.665C52.6669 106.153 52.79 106.746 52.7862 107.443V113H50.7294V107.761C50.7294 107.178 50.5779 106.722 50.2749 106.392C49.9756 106.062 49.5608 105.898 49.0305 105.898C48.6707 105.898 48.3506 105.977 48.0703 106.136C47.7938 106.292 47.576 106.517 47.4169 106.812C47.2616 107.108 47.1839 107.466 47.1839 107.886ZM58.7408 113.17C57.8658 113.17 57.1101 112.989 56.4737 112.625C55.8411 112.258 55.3544 111.739 55.0135 111.068C54.6726 110.394 54.5021 109.6 54.5021 108.688C54.5021 107.79 54.6726 107.002 55.0135 106.324C55.3582 105.642 55.8393 105.112 56.4567 104.733C57.0741 104.35 57.7995 104.159 58.6328 104.159C59.1707 104.159 59.6783 104.246 60.1555 104.42C60.6366 104.591 61.0608 104.856 61.4283 105.216C61.7995 105.576 62.0911 106.034 62.3033 106.591C62.5154 107.144 62.6214 107.803 62.6214 108.568V109.199H55.468V107.812H60.6499C60.6461 107.419 60.5608 107.068 60.3942 106.761C60.2275 106.451 59.9946 106.206 59.6953 106.028C59.3999 105.85 59.0552 105.761 58.6612 105.761C58.2408 105.761 57.8714 105.864 57.5533 106.068C57.2351 106.269 56.987 106.534 56.8089 106.864C56.6347 107.189 56.5457 107.547 56.5419 107.938V109.148C56.5419 109.655 56.6347 110.091 56.8203 110.455C57.0059 110.814 57.2654 111.091 57.5987 111.284C57.9321 111.473 58.3222 111.568 58.7692 111.568C59.0684 111.568 59.3393 111.527 59.5817 111.443C59.8241 111.356 60.0343 111.229 60.2124 111.062C60.3904 110.896 60.5249 110.689 60.6158 110.443L62.5362 110.659C62.415 111.167 62.1839 111.61 61.843 111.989C61.5059 112.364 61.0741 112.655 60.5476 112.864C60.0211 113.068 59.4188 113.17 58.7408 113.17ZM68.7195 104.273V105.864H63.7024V104.273H68.7195ZM64.9411 102.182H66.9979V110.375C66.9979 110.652 67.0395 110.864 67.1229 111.011C67.21 111.155 67.3236 111.254 67.4638 111.307C67.6039 111.36 67.7592 111.386 67.9297 111.386C68.0585 111.386 68.1759 111.377 68.282 111.358C68.3918 111.339 68.4751 111.322 68.532 111.307L68.8786 112.915C68.7687 112.953 68.6115 112.994 68.407 113.04C68.2062 113.085 67.96 113.112 67.6683 113.119C67.1532 113.134 66.6892 113.057 66.2763 112.886C65.8634 112.712 65.5357 112.443 65.2933 112.08C65.0547 111.716 64.9373 111.261 64.9411 110.716V102.182ZM79.1186 101.364V113H77.0107V103.415H76.9425L74.2209 105.153V103.222L77.1129 101.364H79.1186ZM86.3743 113.222C85.4387 113.222 84.6357 112.985 83.9652 112.511C83.2985 112.034 82.7853 111.347 82.4254 110.449C82.0694 109.547 81.8913 108.462 81.8913 107.193C81.8951 105.924 82.075 104.845 82.4311 103.955C82.791 103.061 83.3042 102.379 83.9709 101.909C84.6413 101.439 85.4425 101.205 86.3743 101.205C87.3061 101.205 88.1072 101.439 88.7777 101.909C89.4482 102.379 89.9614 103.061 90.3175 103.955C90.6773 104.848 90.8572 105.928 90.8572 107.193C90.8572 108.466 90.6773 109.553 90.3175 110.455C89.9614 111.352 89.4482 112.038 88.7777 112.511C88.111 112.985 87.3099 113.222 86.3743 113.222ZM86.3743 111.443C87.1016 111.443 87.6754 111.085 88.0959 110.369C88.5201 109.65 88.7322 108.591 88.7322 107.193C88.7322 106.269 88.6357 105.492 88.4425 104.864C88.2493 104.235 87.9766 103.761 87.6243 103.443C87.272 103.121 86.8554 102.96 86.3743 102.96C85.6508 102.96 85.0788 103.32 84.6584 104.04C84.2379 104.756 84.0258 105.807 84.022 107.193C84.0182 108.121 84.111 108.902 84.3004 109.534C84.4936 110.167 84.7663 110.644 85.1186 110.966C85.4709 111.284 85.8894 111.443 86.3743 111.443ZM97.0462 113.222C96.1106 113.222 95.3075 112.985 94.6371 112.511C93.9704 112.034 93.4571 111.347 93.0973 110.449C92.7412 109.547 92.5632 108.462 92.5632 107.193C92.567 105.924 92.7469 104.845 93.103 103.955C93.4628 103.061 93.9761 102.379 94.6428 101.909C95.3132 101.439 96.1143 101.205 97.0462 101.205C97.978 101.205 98.7791 101.439 99.4496 101.909C100.12 102.379 100.633 103.061 100.989 103.955C101.349 104.848 101.529 105.928 101.529 107.193C101.529 108.466 101.349 109.553 100.989 110.455C100.633 111.352 100.12 112.038 99.4496 112.511C98.7829 112.985 97.9818 113.222 97.0462 113.222ZM97.0462 111.443C97.7734 111.443 98.3473 111.085 98.7678 110.369C99.192 109.65 99.4041 108.591 99.4041 107.193C99.4041 106.269 99.3075 105.492 99.1143 104.864C98.9212 104.235 98.6484 103.761 98.2962 103.443C97.9439 103.121 97.5272 102.96 97.0462 102.96C96.3227 102.96 95.7507 103.32 95.3303 104.04C94.9098 104.756 94.6977 105.807 94.6939 107.193C94.6901 108.121 94.7829 108.902 94.9723 109.534C95.1655 110.167 95.4382 110.644 95.7905 110.966C96.1428 111.284 96.5613 111.443 97.0462 111.443ZM109.638 110.818V110.205C109.638 109.754 109.733 109.339 109.923 108.96C110.116 108.581 110.396 108.277 110.763 108.045C111.131 107.814 111.576 107.699 112.099 107.699C112.637 107.699 113.087 107.814 113.451 108.045C113.815 108.273 114.089 108.576 114.275 108.955C114.464 109.333 114.559 109.75 114.559 110.205V110.818C114.559 111.269 114.464 111.684 114.275 112.062C114.085 112.441 113.807 112.746 113.44 112.977C113.076 113.208 112.629 113.324 112.099 113.324C111.568 113.324 111.12 113.208 110.752 112.977C110.385 112.746 110.106 112.441 109.917 112.062C109.731 111.684 109.638 111.269 109.638 110.818ZM111.121 110.205V110.818C111.121 111.117 111.193 111.392 111.337 111.642C111.481 111.892 111.735 112.017 112.099 112.017C112.466 112.017 112.718 111.894 112.854 111.648C112.995 111.398 113.065 111.121 113.065 110.818V110.205C113.065 109.902 112.998 109.625 112.866 109.375C112.733 109.121 112.478 108.994 112.099 108.994C111.743 108.994 111.491 109.121 111.343 109.375C111.195 109.625 111.121 109.902 111.121 110.205ZM103.724 104.159V103.545C103.724 103.091 103.82 102.674 104.013 102.295C104.207 101.917 104.487 101.614 104.854 101.386C105.222 101.155 105.667 101.04 106.19 101.04C106.724 101.04 107.173 101.155 107.536 101.386C107.904 101.614 108.18 101.917 108.366 102.295C108.551 102.674 108.644 103.091 108.644 103.545V104.159C108.644 104.614 108.549 105.03 108.36 105.409C108.174 105.784 107.898 106.085 107.531 106.312C107.163 106.54 106.716 106.653 106.19 106.653C105.656 106.653 105.205 106.54 104.837 106.312C104.474 106.085 104.197 105.782 104.008 105.403C103.818 105.025 103.724 104.61 103.724 104.159ZM105.218 103.545V104.159C105.218 104.462 105.288 104.739 105.428 104.989C105.572 105.235 105.826 105.358 106.19 105.358C106.553 105.358 106.803 105.235 106.94 104.989C107.08 104.739 107.15 104.462 107.15 104.159V103.545C107.15 103.242 107.084 102.966 106.951 102.716C106.818 102.462 106.565 102.335 106.19 102.335C105.83 102.335 105.578 102.462 105.434 102.716C105.29 102.97 105.218 103.246 105.218 103.545ZM104.371 113L112.371 101.364H113.792L105.792 113H104.371ZM120.999 113V101.364H128.454V103.131H123.107V106.29H127.942V108.057H123.107V113H120.999ZM130.283 113V104.273H132.34V113H130.283ZM131.317 103.034C130.992 103.034 130.711 102.926 130.477 102.71C130.242 102.491 130.124 102.227 130.124 101.92C130.124 101.61 130.242 101.347 130.477 101.131C130.711 100.911 130.992 100.801 131.317 100.801C131.647 100.801 131.927 100.911 132.158 101.131C132.393 101.347 132.511 101.61 132.511 101.92C132.511 102.227 132.393 102.491 132.158 102.71C131.927 102.926 131.647 103.034 131.317 103.034ZM134.546 113V101.364H136.603V105.716H136.688C136.794 105.504 136.944 105.278 137.137 105.04C137.33 104.797 137.592 104.591 137.921 104.42C138.251 104.246 138.671 104.159 139.183 104.159C139.857 104.159 140.465 104.331 141.006 104.676C141.552 105.017 141.984 105.523 142.302 106.193C142.624 106.86 142.785 107.678 142.785 108.648C142.785 109.606 142.628 110.42 142.313 111.091C141.999 111.761 141.571 112.273 141.029 112.625C140.487 112.977 139.874 113.153 139.188 113.153C138.688 113.153 138.273 113.07 137.944 112.903C137.614 112.737 137.349 112.536 137.148 112.301C136.951 112.062 136.798 111.837 136.688 111.625H136.569V113H134.546ZM136.563 108.636C136.563 109.201 136.643 109.695 136.802 110.119C136.965 110.544 137.198 110.875 137.501 111.114C137.808 111.348 138.179 111.466 138.614 111.466C139.069 111.466 139.45 111.345 139.756 111.102C140.063 110.856 140.294 110.521 140.45 110.097C140.609 109.669 140.688 109.182 140.688 108.636C140.688 108.095 140.611 107.614 140.455 107.193C140.3 106.773 140.069 106.443 139.762 106.205C139.455 105.966 139.073 105.847 138.614 105.847C138.175 105.847 137.802 105.962 137.495 106.193C137.188 106.424 136.955 106.748 136.796 107.165C136.641 107.581 136.563 108.072 136.563 108.636ZM144.533 113V104.273H146.528V105.727H146.619C146.778 105.223 147.05 104.835 147.437 104.562C147.827 104.286 148.272 104.148 148.772 104.148C148.886 104.148 149.013 104.153 149.153 104.165C149.297 104.172 149.416 104.186 149.511 104.205V106.097C149.424 106.066 149.285 106.04 149.096 106.017C148.91 105.991 148.73 105.977 148.556 105.977C148.181 105.977 147.844 106.059 147.545 106.222C147.249 106.381 147.016 106.602 146.846 106.886C146.675 107.17 146.59 107.498 146.59 107.869V113H144.533ZM153.232 113.176C152.679 113.176 152.181 113.078 151.738 112.881C151.299 112.68 150.95 112.384 150.692 111.994C150.439 111.604 150.312 111.123 150.312 110.551C150.312 110.059 150.403 109.652 150.585 109.33C150.766 109.008 151.014 108.75 151.329 108.557C151.643 108.364 151.997 108.218 152.391 108.119C152.789 108.017 153.2 107.943 153.624 107.898C154.136 107.845 154.55 107.797 154.869 107.756C155.187 107.71 155.418 107.642 155.562 107.551C155.71 107.456 155.783 107.311 155.783 107.114V107.08C155.783 106.652 155.656 106.32 155.403 106.085C155.149 105.85 154.783 105.733 154.306 105.733C153.802 105.733 153.403 105.843 153.107 106.062C152.816 106.282 152.619 106.542 152.516 106.841L150.596 106.568C150.747 106.038 150.997 105.595 151.346 105.239C151.694 104.879 152.121 104.61 152.624 104.432C153.128 104.25 153.685 104.159 154.295 104.159C154.715 104.159 155.134 104.208 155.55 104.307C155.967 104.405 156.348 104.568 156.692 104.795C157.037 105.019 157.314 105.324 157.522 105.71C157.734 106.097 157.84 106.58 157.84 107.159V113H155.863V111.801H155.795C155.67 112.044 155.494 112.271 155.266 112.483C155.043 112.691 154.761 112.86 154.42 112.989C154.083 113.114 153.687 113.176 153.232 113.176ZM153.766 111.665C154.179 111.665 154.537 111.583 154.84 111.42C155.143 111.254 155.376 111.034 155.539 110.761C155.706 110.489 155.789 110.191 155.789 109.869V108.841C155.725 108.894 155.615 108.943 155.46 108.989C155.308 109.034 155.138 109.074 154.948 109.108C154.759 109.142 154.571 109.172 154.386 109.199C154.2 109.225 154.039 109.248 153.903 109.267C153.596 109.309 153.321 109.377 153.079 109.472C152.836 109.566 152.645 109.699 152.505 109.869C152.365 110.036 152.295 110.252 152.295 110.517C152.295 110.896 152.433 111.182 152.71 111.375C152.986 111.568 153.338 111.665 153.766 111.665ZM174.366 107.182C174.366 108.436 174.131 109.509 173.661 110.403C173.195 111.294 172.559 111.975 171.752 112.449C170.949 112.922 170.038 113.159 169.019 113.159C168 113.159 167.087 112.922 166.281 112.449C165.478 111.972 164.841 111.288 164.371 110.398C163.906 109.504 163.673 108.432 163.673 107.182C163.673 105.928 163.906 104.856 164.371 103.966C164.841 103.072 165.478 102.388 166.281 101.915C167.087 101.441 168 101.205 169.019 101.205C170.038 101.205 170.949 101.441 171.752 101.915C172.559 102.388 173.195 103.072 173.661 103.966C174.131 104.856 174.366 105.928 174.366 107.182ZM172.246 107.182C172.246 106.299 172.108 105.555 171.832 104.949C171.559 104.339 171.18 103.879 170.695 103.568C170.21 103.254 169.652 103.097 169.019 103.097C168.387 103.097 167.828 103.254 167.343 103.568C166.858 103.879 166.478 104.339 166.201 104.949C165.928 105.555 165.792 106.299 165.792 107.182C165.792 108.064 165.928 108.811 166.201 109.42C166.478 110.027 166.858 110.487 167.343 110.801C167.828 111.112 168.387 111.267 169.019 111.267C169.652 111.267 170.21 111.112 170.695 110.801C171.18 110.487 171.559 110.027 171.832 109.42C172.108 108.811 172.246 108.064 172.246 107.182ZM168.229 100.216L169.502 97.6193H171.513L169.769 100.216H168.229ZM176.268 116.273V104.273H178.29V105.716H178.41C178.516 105.504 178.665 105.278 178.859 105.04C179.052 104.797 179.313 104.591 179.643 104.42C179.972 104.246 180.393 104.159 180.904 104.159C181.578 104.159 182.186 104.331 182.728 104.676C183.273 105.017 183.705 105.523 184.023 106.193C184.345 106.86 184.506 107.678 184.506 108.648C184.506 109.606 184.349 110.42 184.035 111.091C183.72 111.761 183.292 112.273 182.751 112.625C182.209 112.977 181.595 113.153 180.91 113.153C180.41 113.153 179.995 113.07 179.665 112.903C179.336 112.737 179.071 112.536 178.87 112.301C178.673 112.062 178.52 111.837 178.41 111.625H178.325V116.273H176.268ZM178.285 108.636C178.285 109.201 178.364 109.695 178.523 110.119C178.686 110.544 178.919 110.875 179.222 111.114C179.529 111.348 179.9 111.466 180.336 111.466C180.79 111.466 181.171 111.345 181.478 111.102C181.785 110.856 182.016 110.521 182.171 110.097C182.33 109.669 182.41 109.182 182.41 108.636C182.41 108.095 182.332 107.614 182.177 107.193C182.022 106.773 181.79 106.443 181.484 106.205C181.177 105.966 180.794 105.847 180.336 105.847C179.897 105.847 179.523 105.962 179.217 106.193C178.91 106.424 178.677 106.748 178.518 107.165C178.362 107.581 178.285 108.072 178.285 108.636ZM190.626 104.273V105.864H185.609V104.273H190.626ZM186.847 102.182H188.904V110.375C188.904 110.652 188.946 110.864 189.029 111.011C189.116 111.155 189.23 111.254 189.37 111.307C189.51 111.36 189.665 111.386 189.836 111.386C189.965 111.386 190.082 111.377 190.188 111.358C190.298 111.339 190.381 111.322 190.438 111.307L190.785 112.915C190.675 112.953 190.518 112.994 190.313 113.04C190.112 113.085 189.866 113.112 189.575 113.119C189.059 113.134 188.595 113.057 188.183 112.886C187.77 112.712 187.442 112.443 187.2 112.08C186.961 111.716 186.844 111.261 186.847 110.716V102.182ZM192.346 113V104.273H194.403V113H192.346ZM193.38 103.034C193.054 103.034 192.774 102.926 192.539 102.71C192.304 102.491 192.187 102.227 192.187 101.92C192.187 101.61 192.304 101.347 192.539 101.131C192.774 100.911 193.054 100.801 193.38 100.801C193.71 100.801 193.99 100.911 194.221 101.131C194.456 101.347 194.573 101.61 194.573 101.92C194.573 102.227 194.456 102.491 194.221 102.71C193.99 102.926 193.71 103.034 193.38 103.034ZM200.325 113.17C199.453 113.17 198.705 112.979 198.08 112.597C197.459 112.214 196.98 111.686 196.643 111.011C196.309 110.333 196.143 109.553 196.143 108.67C196.143 107.784 196.313 107.002 196.654 106.324C196.995 105.642 197.476 105.112 198.097 104.733C198.722 104.35 199.461 104.159 200.313 104.159C201.022 104.159 201.648 104.29 202.194 104.551C202.743 104.809 203.181 105.174 203.506 105.648C203.832 106.117 204.018 106.667 204.063 107.295H202.097C202.018 106.875 201.828 106.525 201.529 106.244C201.234 105.96 200.838 105.818 200.342 105.818C199.921 105.818 199.552 105.932 199.234 106.159C198.915 106.383 198.667 106.705 198.489 107.125C198.315 107.545 198.228 108.049 198.228 108.636C198.228 109.231 198.315 109.742 198.489 110.17C198.664 110.595 198.908 110.922 199.222 111.153C199.54 111.381 199.914 111.494 200.342 111.494C200.645 111.494 200.915 111.437 201.154 111.324C201.397 111.206 201.599 111.038 201.762 110.818C201.925 110.598 202.037 110.331 202.097 110.017H204.063C204.014 110.634 203.832 111.182 203.518 111.659C203.203 112.133 202.775 112.504 202.234 112.773C201.692 113.038 201.056 113.17 200.325 113.17ZM208.263 113.176C207.71 113.176 207.212 113.078 206.769 112.881C206.33 112.68 205.981 112.384 205.724 111.994C205.47 111.604 205.343 111.123 205.343 110.551C205.343 110.059 205.434 109.652 205.616 109.33C205.798 109.008 206.046 108.75 206.36 108.557C206.674 108.364 207.029 108.218 207.423 108.119C207.82 108.017 208.231 107.943 208.656 107.898C209.167 107.845 209.582 107.797 209.9 107.756C210.218 107.71 210.449 107.642 210.593 107.551C210.741 107.456 210.815 107.311 210.815 107.114V107.08C210.815 106.652 210.688 106.32 210.434 106.085C210.18 105.85 209.815 105.733 209.337 105.733C208.834 105.733 208.434 105.843 208.138 106.062C207.847 106.282 207.65 106.542 207.548 106.841L205.627 106.568C205.779 106.038 206.029 105.595 206.377 105.239C206.726 104.879 207.152 104.61 207.656 104.432C208.159 104.25 208.716 104.159 209.326 104.159C209.746 104.159 210.165 104.208 210.582 104.307C210.998 104.405 211.379 104.568 211.724 104.795C212.068 105.019 212.345 105.324 212.553 105.71C212.765 106.097 212.871 106.58 212.871 107.159V113H210.894V111.801H210.826C210.701 112.044 210.525 112.271 210.298 112.483C210.074 112.691 209.792 112.86 209.451 112.989C209.114 113.114 208.718 113.176 208.263 113.176ZM208.798 111.665C209.21 111.665 209.568 111.583 209.871 111.42C210.174 111.254 210.407 111.034 210.57 110.761C210.737 110.489 210.82 110.191 210.82 109.869V108.841C210.756 108.894 210.646 108.943 210.491 108.989C210.339 109.034 210.169 109.074 209.979 109.108C209.79 109.142 209.603 109.172 209.417 109.199C209.231 109.225 209.07 109.248 208.934 109.267C208.627 109.309 208.353 109.377 208.11 109.472C207.868 109.566 207.676 109.699 207.536 109.869C207.396 110.036 207.326 110.252 207.326 110.517C207.326 110.896 207.464 111.182 207.741 111.375C208.017 111.568 208.37 111.665 208.798 111.665Z" fill="white"/>
<path d="M32.3232 148.562C32.2701 148.066 32.0466 147.68 31.6527 147.403C31.2625 147.127 30.755 146.989 30.13 146.989C29.6906 146.989 29.3137 147.055 28.9993 147.188C28.6849 147.32 28.4444 147.5 28.2777 147.727C28.111 147.955 28.0258 148.214 28.022 148.506C28.022 148.748 28.0769 148.958 28.1868 149.136C28.3004 149.314 28.4538 149.466 28.647 149.591C28.8402 149.712 29.0542 149.814 29.2891 149.898C29.5239 149.981 29.7607 150.051 29.9993 150.108L31.0902 150.381C31.5296 150.483 31.9519 150.621 32.3572 150.795C32.7663 150.97 33.1319 151.189 33.4538 151.455C33.7796 151.72 34.0372 152.04 34.2266 152.415C34.416 152.79 34.5107 153.229 34.5107 153.733C34.5107 154.415 34.3364 155.015 33.9879 155.534C33.6394 156.049 33.1357 156.453 32.4766 156.744C31.8213 157.032 31.0277 157.176 30.0959 157.176C29.1906 157.176 28.4046 157.036 27.7379 156.756C27.075 156.475 26.5561 156.066 26.1811 155.528C25.8099 154.991 25.6091 154.335 25.5788 153.562H27.6527C27.683 153.968 27.808 154.305 28.0277 154.574C28.2474 154.843 28.5334 155.044 28.8857 155.176C29.2417 155.309 29.6394 155.375 30.0788 155.375C30.5372 155.375 30.9387 155.307 31.2834 155.17C31.6319 155.03 31.9046 154.837 32.1016 154.591C32.2985 154.341 32.3989 154.049 32.4027 153.716C32.3989 153.413 32.3099 153.163 32.1357 152.966C31.9614 152.765 31.7171 152.598 31.4027 152.466C31.0921 152.33 30.7285 152.208 30.3118 152.102L28.9879 151.761C28.0296 151.515 27.272 151.142 26.7152 150.642C26.1622 150.138 25.8857 149.47 25.8857 148.636C25.8857 147.951 26.0713 147.35 26.4425 146.835C26.8175 146.32 27.3269 145.92 27.9709 145.636C28.6148 145.348 29.344 145.205 30.1584 145.205C30.9841 145.205 31.7076 145.348 32.3288 145.636C32.9538 145.92 33.4444 146.316 33.8004 146.824C34.1565 147.328 34.3402 147.907 34.3516 148.562H32.3232ZM40.1626 157.17C39.2876 157.17 38.532 156.989 37.8956 156.625C37.263 156.258 36.7763 155.739 36.4354 155.068C36.0945 154.394 35.924 153.6 35.924 152.688C35.924 151.79 36.0945 151.002 36.4354 150.324C36.7801 149.642 37.2611 149.112 37.8786 148.733C38.496 148.35 39.2214 148.159 40.0547 148.159C40.5926 148.159 41.1001 148.246 41.5774 148.42C42.0585 148.591 42.4827 148.856 42.8501 149.216C43.2214 149.576 43.513 150.034 43.7251 150.591C43.9373 151.144 44.0433 151.803 44.0433 152.568V153.199H36.8899V151.812H42.0717C42.0679 151.419 41.9827 151.068 41.8161 150.761C41.6494 150.451 41.4164 150.206 41.1172 150.028C40.8217 149.85 40.477 149.761 40.0831 149.761C39.6626 149.761 39.2933 149.864 38.9751 150.068C38.657 150.269 38.4089 150.534 38.2308 150.864C38.0566 151.189 37.9676 151.547 37.9638 151.938V153.148C37.9638 153.655 38.0566 154.091 38.2422 154.455C38.4278 154.814 38.6873 155.091 39.0206 155.284C39.3539 155.473 39.7441 155.568 40.1911 155.568C40.4903 155.568 40.7611 155.527 41.0036 155.443C41.246 155.356 41.4562 155.229 41.6342 155.062C41.8123 154.896 41.9467 154.689 42.0376 154.443L43.9581 154.659C43.8369 155.167 43.6058 155.61 43.2649 155.989C42.9278 156.364 42.496 156.655 41.9695 156.864C41.4429 157.068 40.8407 157.17 40.1626 157.17ZM45.7834 157V148.273H47.7493V149.756H47.8516C48.0334 149.256 48.3345 148.866 48.755 148.585C49.1754 148.301 49.6773 148.159 50.2607 148.159C50.8516 148.159 51.3497 148.303 51.755 148.591C52.1641 148.875 52.4519 149.263 52.6186 149.756H52.7095C52.9027 149.271 53.2285 148.884 53.6868 148.597C54.1489 148.305 54.6963 148.159 55.3288 148.159C56.1319 148.159 56.7872 148.413 57.2947 148.92C57.8023 149.428 58.0561 150.169 58.0561 151.142V157H55.9936V151.46C55.9936 150.919 55.8497 150.523 55.5618 150.273C55.2739 150.019 54.9216 149.892 54.505 149.892C54.0088 149.892 53.6205 150.047 53.3402 150.358C53.0637 150.665 52.9254 151.064 52.9254 151.557V157H50.9084V151.375C50.9084 150.924 50.772 150.564 50.4993 150.295C50.2304 150.027 49.8781 149.892 49.4425 149.892C49.147 149.892 48.8781 149.968 48.6357 150.119C48.3932 150.267 48.2 150.477 48.0561 150.75C47.9122 151.019 47.8402 151.333 47.8402 151.693V157H45.7834ZM66.1683 145.364V157H64.1115V145.364H66.1683ZM68.2834 157V148.273H70.3402V157H68.2834ZM69.3175 147.034C68.9917 147.034 68.7114 146.926 68.4766 146.71C68.2417 146.491 68.1243 146.227 68.1243 145.92C68.1243 145.61 68.2417 145.347 68.4766 145.131C68.7114 144.911 68.9917 144.801 69.3175 144.801C69.647 144.801 69.9273 144.911 70.1584 145.131C70.3932 145.347 70.5107 145.61 70.5107 145.92C70.5107 146.227 70.3932 146.491 70.1584 146.71C69.9273 146.926 69.647 147.034 69.3175 147.034ZM72.4553 157V148.273H74.4212V149.756H74.5234C74.7053 149.256 75.0064 148.866 75.4268 148.585C75.8473 148.301 76.3492 148.159 76.9325 148.159C77.5234 148.159 78.0215 148.303 78.4268 148.591C78.8359 148.875 79.1238 149.263 79.2905 149.756H79.3814C79.5746 149.271 79.9003 148.884 80.3587 148.597C80.8208 148.305 81.3681 148.159 82.0007 148.159C82.8037 148.159 83.459 148.413 83.9666 148.92C84.4742 149.428 84.728 150.169 84.728 151.142V157H82.6655V151.46C82.6655 150.919 82.5215 150.523 82.2337 150.273C81.9458 150.019 81.5935 149.892 81.1768 149.892C80.6806 149.892 80.2924 150.047 80.0121 150.358C79.7356 150.665 79.5973 151.064 79.5973 151.557V157H77.5803V151.375C77.5803 150.924 77.4439 150.564 77.1712 150.295C76.9022 150.027 76.55 149.892 76.1143 149.892C75.8189 149.892 75.55 149.968 75.3075 150.119C75.0651 150.267 74.8719 150.477 74.728 150.75C74.584 151.019 74.5121 151.333 74.5121 151.693V157H72.4553ZM86.8146 157V148.273H88.8714V157H86.8146ZM87.8487 147.034C87.523 147.034 87.2427 146.926 87.0078 146.71C86.773 146.491 86.6555 146.227 86.6555 145.92C86.6555 145.61 86.773 145.347 87.0078 145.131C87.2427 144.911 87.523 144.801 87.8487 144.801C88.1783 144.801 88.4586 144.911 88.6896 145.131C88.9245 145.347 89.0419 145.61 89.0419 145.92C89.0419 146.227 88.9245 146.491 88.6896 146.71C88.4586 146.926 88.1783 147.034 87.8487 147.034ZM95.3445 148.273V149.864H90.3274V148.273H95.3445ZM91.5661 146.182H93.6229V154.375C93.6229 154.652 93.6645 154.864 93.7479 155.011C93.835 155.155 93.9486 155.254 94.0888 155.307C94.2289 155.36 94.3842 155.386 94.5547 155.386C94.6835 155.386 94.8009 155.377 94.907 155.358C95.0168 155.339 95.1001 155.322 95.157 155.307L95.5036 156.915C95.3937 156.953 95.2365 156.994 95.032 157.04C94.8312 157.085 94.585 157.112 94.2933 157.119C93.7782 157.134 93.3142 157.057 92.9013 156.886C92.4884 156.712 92.1607 156.443 91.9183 156.08C91.6797 155.716 91.5623 155.261 91.5661 154.716V146.182ZM100.835 157.17C99.9595 157.17 99.2038 156.989 98.5675 156.625C97.9349 156.258 97.4482 155.739 97.1072 155.068C96.7663 154.394 96.5959 153.6 96.5959 152.688C96.5959 151.79 96.7663 151.002 97.1072 150.324C97.4519 149.642 97.933 149.112 98.5504 148.733C99.1679 148.35 99.8932 148.159 100.727 148.159C101.264 148.159 101.772 148.246 102.249 148.42C102.73 148.591 103.155 148.856 103.522 149.216C103.893 149.576 104.185 150.034 104.397 150.591C104.609 151.144 104.715 151.803 104.715 152.568V153.199H97.5618V151.812H102.744C102.74 151.419 102.655 151.068 102.488 150.761C102.321 150.451 102.088 150.206 101.789 150.028C101.494 149.85 101.149 149.761 100.755 149.761C100.335 149.761 99.9652 149.864 99.647 150.068C99.3288 150.269 99.0807 150.534 98.9027 150.864C98.7285 151.189 98.6394 151.547 98.6357 151.938V153.148C98.6357 153.655 98.7285 154.091 98.9141 154.455C99.0997 154.814 99.3591 155.091 99.6925 155.284C100.026 155.473 100.416 155.568 100.863 155.568C101.162 155.568 101.433 155.527 101.675 155.443C101.918 155.356 102.128 155.229 102.306 155.062C102.484 154.896 102.619 154.689 102.71 154.443L104.63 154.659C104.509 155.167 104.278 155.61 103.937 155.989C103.6 156.364 103.168 156.655 102.641 156.864C102.115 157.068 101.513 157.17 100.835 157.17ZM113.663 157.153C112.977 157.153 112.363 156.977 111.822 156.625C111.28 156.273 110.852 155.761 110.538 155.091C110.223 154.42 110.066 153.606 110.066 152.648C110.066 151.678 110.225 150.86 110.543 150.193C110.865 149.523 111.299 149.017 111.844 148.676C112.39 148.331 112.998 148.159 113.668 148.159C114.18 148.159 114.6 148.246 114.93 148.42C115.259 148.591 115.521 148.797 115.714 149.04C115.907 149.278 116.057 149.504 116.163 149.716H116.248V145.364H118.31V157H116.288V155.625H116.163C116.057 155.837 115.903 156.062 115.702 156.301C115.502 156.536 115.237 156.737 114.907 156.903C114.577 157.07 114.163 157.153 113.663 157.153ZM114.237 155.466C114.672 155.466 115.043 155.348 115.35 155.114C115.657 154.875 115.89 154.544 116.049 154.119C116.208 153.695 116.288 153.201 116.288 152.636C116.288 152.072 116.208 151.581 116.049 151.165C115.894 150.748 115.663 150.424 115.356 150.193C115.053 149.962 114.68 149.847 114.237 149.847C113.778 149.847 113.396 149.966 113.089 150.205C112.782 150.443 112.551 150.773 112.396 151.193C112.24 151.614 112.163 152.095 112.163 152.636C112.163 153.182 112.24 153.669 112.396 154.097C112.555 154.521 112.788 154.856 113.094 155.102C113.405 155.345 113.786 155.466 114.237 155.466ZM124.366 157.17C123.491 157.17 122.735 156.989 122.099 156.625C121.466 156.258 120.979 155.739 120.638 155.068C120.298 154.394 120.127 153.6 120.127 152.688C120.127 151.79 120.298 151.002 120.638 150.324C120.983 149.642 121.464 149.112 122.082 148.733C122.699 148.35 123.424 148.159 124.258 148.159C124.796 148.159 125.303 148.246 125.781 148.42C126.262 148.591 126.686 148.856 127.053 149.216C127.424 149.576 127.716 150.034 127.928 150.591C128.14 151.144 128.246 151.803 128.246 152.568V153.199H121.093V151.812H126.275C126.271 151.419 126.186 151.068 126.019 150.761C125.853 150.451 125.62 150.206 125.32 150.028C125.025 149.85 124.68 149.761 124.286 149.761C123.866 149.761 123.496 149.864 123.178 150.068C122.86 150.269 122.612 150.534 122.434 150.864C122.26 151.189 122.171 151.547 122.167 151.938V153.148C122.167 153.655 122.26 154.091 122.445 154.455C122.631 154.814 122.89 155.091 123.224 155.284C123.557 155.473 123.947 155.568 124.394 155.568C124.693 155.568 124.964 155.527 125.207 155.443C125.449 155.356 125.659 155.229 125.837 155.062C126.015 154.896 126.15 154.689 126.241 154.443L128.161 154.659C128.04 155.167 127.809 155.61 127.468 155.989C127.131 156.364 126.699 156.655 126.173 156.864C125.646 157.068 125.044 157.17 124.366 157.17ZM138.376 148.273V149.864H133.217V148.273H138.376ZM134.506 157V147.449C134.506 146.862 134.628 146.373 134.87 145.983C135.116 145.593 135.446 145.301 135.859 145.108C136.272 144.915 136.73 144.818 137.234 144.818C137.59 144.818 137.906 144.847 138.183 144.903C138.459 144.96 138.664 145.011 138.796 145.057L138.387 146.648C138.3 146.621 138.19 146.595 138.058 146.568C137.925 146.538 137.777 146.523 137.614 146.523C137.232 146.523 136.961 146.616 136.802 146.801C136.647 146.983 136.569 147.244 136.569 147.585V157H134.506ZM139.987 157V148.273H141.981V149.727H142.072C142.231 149.223 142.504 148.835 142.89 148.562C143.28 148.286 143.725 148.148 144.225 148.148C144.339 148.148 144.466 148.153 144.606 148.165C144.75 148.172 144.869 148.186 144.964 148.205V150.097C144.877 150.066 144.738 150.04 144.549 150.017C144.363 149.991 144.183 149.977 144.009 149.977C143.634 149.977 143.297 150.059 142.998 150.222C142.702 150.381 142.469 150.602 142.299 150.886C142.129 151.17 142.043 151.498 142.043 151.869V157H139.987ZM148.685 157.176C148.132 157.176 147.634 157.078 147.191 156.881C146.752 156.68 146.403 156.384 146.146 155.994C145.892 155.604 145.765 155.123 145.765 154.551C145.765 154.059 145.856 153.652 146.038 153.33C146.219 153.008 146.468 152.75 146.782 152.557C147.096 152.364 147.451 152.218 147.844 152.119C148.242 152.017 148.653 151.943 149.077 151.898C149.589 151.845 150.004 151.797 150.322 151.756C150.64 151.71 150.871 151.642 151.015 151.551C151.163 151.456 151.237 151.311 151.237 151.114V151.08C151.237 150.652 151.11 150.32 150.856 150.085C150.602 149.85 150.237 149.733 149.759 149.733C149.255 149.733 148.856 149.843 148.56 150.062C148.269 150.282 148.072 150.542 147.969 150.841L146.049 150.568C146.201 150.038 146.451 149.595 146.799 149.239C147.147 148.879 147.574 148.61 148.077 148.432C148.581 148.25 149.138 148.159 149.748 148.159C150.168 148.159 150.587 148.208 151.004 148.307C151.42 148.405 151.801 148.568 152.146 148.795C152.49 149.019 152.767 149.324 152.975 149.71C153.187 150.097 153.293 150.58 153.293 151.159V157H151.316V155.801H151.248C151.123 156.044 150.947 156.271 150.719 156.483C150.496 156.691 150.214 156.86 149.873 156.989C149.536 157.114 149.14 157.176 148.685 157.176ZM149.219 155.665C149.632 155.665 149.99 155.583 150.293 155.42C150.596 155.254 150.829 155.034 150.992 154.761C151.159 154.489 151.242 154.191 151.242 153.869V152.841C151.178 152.894 151.068 152.943 150.913 152.989C150.761 153.034 150.591 153.074 150.401 153.108C150.212 153.142 150.024 153.172 149.839 153.199C149.653 153.225 149.492 153.248 149.356 153.267C149.049 153.309 148.774 153.377 148.532 153.472C148.29 153.566 148.098 153.699 147.958 153.869C147.818 154.036 147.748 154.252 147.748 154.517C147.748 154.896 147.886 155.182 148.163 155.375C148.439 155.568 148.791 155.665 149.219 155.665ZM157.418 151.886V157H155.362V148.273H157.327V149.756H157.43C157.63 149.267 157.951 148.879 158.39 148.591C158.833 148.303 159.38 148.159 160.032 148.159C160.634 148.159 161.159 148.288 161.606 148.545C162.057 148.803 162.405 149.176 162.651 149.665C162.901 150.153 163.024 150.746 163.021 151.443V157H160.964V151.761C160.964 151.178 160.812 150.722 160.509 150.392C160.21 150.062 159.795 149.898 159.265 149.898C158.905 149.898 158.585 149.977 158.305 150.136C158.028 150.292 157.81 150.517 157.651 150.812C157.496 151.108 157.418 151.466 157.418 151.886ZM170.935 160.273V155.625H170.85C170.744 155.837 170.591 156.062 170.39 156.301C170.189 156.536 169.924 156.737 169.594 156.903C169.265 157.07 168.85 157.153 168.35 157.153C167.665 157.153 167.051 156.977 166.509 156.625C165.968 156.273 165.54 155.761 165.225 155.091C164.911 154.42 164.754 153.606 164.754 152.648C164.754 151.678 164.913 150.86 165.231 150.193C165.553 149.523 165.987 149.017 166.532 148.676C167.077 148.331 167.685 148.159 168.356 148.159C168.867 148.159 169.288 148.246 169.617 148.42C169.947 148.591 170.208 148.797 170.401 149.04C170.594 149.278 170.744 149.504 170.85 149.716H170.975V148.273H172.998V160.273H170.935ZM168.924 155.466C169.36 155.466 169.731 155.348 170.038 155.114C170.344 154.875 170.577 154.544 170.737 154.119C170.896 153.695 170.975 153.201 170.975 152.636C170.975 152.072 170.896 151.581 170.737 151.165C170.581 150.748 170.35 150.424 170.043 150.193C169.74 149.962 169.367 149.847 168.924 149.847C168.466 149.847 168.083 149.966 167.776 150.205C167.469 150.443 167.238 150.773 167.083 151.193C166.928 151.614 166.85 152.095 166.85 152.636C166.85 153.182 166.928 153.669 167.083 154.097C167.242 154.521 167.475 154.856 167.782 155.102C168.093 155.345 168.473 155.466 168.924 155.466ZM180.674 153.33V148.273H182.731V157H180.737V155.449H180.646C180.449 155.937 180.125 156.337 179.674 156.648C179.227 156.958 178.676 157.114 178.021 157.114C177.449 157.114 176.943 156.987 176.504 156.733C176.068 156.475 175.727 156.102 175.481 155.614C175.235 155.121 175.112 154.527 175.112 153.83V148.273H177.168V153.511C177.168 154.064 177.32 154.504 177.623 154.83C177.926 155.155 178.324 155.318 178.816 155.318C179.119 155.318 179.413 155.244 179.697 155.097C179.981 154.949 180.214 154.729 180.396 154.438C180.581 154.142 180.674 153.773 180.674 153.33ZM184.846 157V148.273H186.903V157H184.846ZM185.88 147.034C185.554 147.034 185.274 146.926 185.039 146.71C184.804 146.491 184.687 146.227 184.687 145.92C184.687 145.61 184.804 145.347 185.039 145.131C185.274 144.911 185.554 144.801 185.88 144.801C186.21 144.801 186.49 144.911 186.721 145.131C186.956 145.347 187.073 145.61 187.073 145.92C187.073 146.227 186.956 146.491 186.721 146.71C186.49 146.926 186.21 147.034 185.88 147.034ZM191.529 157.176C190.976 157.176 190.478 157.078 190.035 156.881C189.595 156.68 189.247 156.384 188.989 155.994C188.736 155.604 188.609 155.123 188.609 154.551C188.609 154.059 188.7 153.652 188.881 153.33C189.063 153.008 189.311 152.75 189.626 152.557C189.94 152.364 190.294 152.218 190.688 152.119C191.086 152.017 191.497 151.943 191.921 151.898C192.433 151.845 192.847 151.797 193.165 151.756C193.484 151.71 193.715 151.642 193.859 151.551C194.006 151.456 194.08 151.311 194.08 151.114V151.08C194.08 150.652 193.953 150.32 193.7 150.085C193.446 149.85 193.08 149.733 192.603 149.733C192.099 149.733 191.7 149.843 191.404 150.062C191.112 150.282 190.915 150.542 190.813 150.841L188.893 150.568C189.044 150.038 189.294 149.595 189.643 149.239C189.991 148.879 190.417 148.61 190.921 148.432C191.425 148.25 191.982 148.159 192.592 148.159C193.012 148.159 193.431 148.208 193.847 148.307C194.264 148.405 194.645 148.568 194.989 148.795C195.334 149.019 195.611 149.324 195.819 149.71C196.031 150.097 196.137 150.58 196.137 151.159V157H194.16V155.801H194.092C193.967 156.044 193.79 156.271 193.563 156.483C193.34 156.691 193.058 156.86 192.717 156.989C192.379 157.114 191.984 157.176 191.529 157.176ZM192.063 155.665C192.476 155.665 192.834 155.583 193.137 155.42C193.44 155.254 193.673 155.034 193.836 154.761C194.003 154.489 194.086 154.191 194.086 153.869V152.841C194.022 152.894 193.912 152.943 193.756 152.989C193.605 153.034 193.434 153.074 193.245 153.108C193.056 153.142 192.868 153.172 192.683 153.199C192.497 153.225 192.336 153.248 192.2 153.267C191.893 153.309 191.618 153.377 191.376 153.472C191.133 153.566 190.942 153.699 190.802 153.869C190.662 154.036 190.592 154.252 190.592 154.517C190.592 154.896 190.73 155.182 191.006 155.375C191.283 155.568 191.635 155.665 192.063 155.665Z" fill="white"/>
</svg>
