<svg width="274" height="169" viewBox="0 0 274 169" fill="none" xmlns="http://www.w3.org/2000/svg">
<path d="M41.0286 17.4545V32H38.3936V17.4545H41.0286ZM46.3393 25.608V32H43.7683V21.0909H46.2257V22.9446H46.3535C46.6045 22.3338 47.0046 21.8485 47.5538 21.4886C48.1078 21.1288 48.792 20.9489 49.6064 20.9489C50.3592 20.9489 51.015 21.1098 51.5737 21.4318C52.1371 21.7538 52.5727 22.2202 52.8805 22.831C53.193 23.4418 53.3469 24.1828 53.3422 25.054V32H50.7711V25.4517C50.7711 24.7225 50.5817 24.152 50.2029 23.7401C49.8289 23.3281 49.3104 23.1222 48.6475 23.1222C48.1977 23.1222 47.7976 23.2216 47.4473 23.4205C47.1016 23.6146 46.8294 23.8963 46.6305 24.2656C46.4364 24.6349 46.3393 25.0824 46.3393 25.608ZM61.4032 21.0909V23.0795H55.1319V21.0909H61.4032ZM56.6802 18.4773H59.2512V28.7188C59.2512 29.0644 59.3033 29.3295 59.4075 29.5142C59.5164 29.6941 59.6584 29.8172 59.8336 29.8835C60.0088 29.9498 60.2029 29.983 60.416 29.983C60.577 29.983 60.7238 29.9711 60.8564 29.9474C60.9937 29.9238 61.0978 29.9025 61.1689 29.8835L61.6021 31.8935C61.4648 31.9408 61.2683 31.9929 61.0126 32.0497C60.7617 32.1065 60.4539 32.1397 60.0893 32.1491C59.4454 32.1681 58.8654 32.071 58.3493 31.858C57.8332 31.6402 57.4236 31.304 57.1206 30.8494C56.8223 30.3949 56.6755 29.8267 56.6802 29.1449V18.4773ZM68.2658 32.2131C67.1721 32.2131 66.2275 31.9858 65.432 31.5312C64.6413 31.072 64.0328 30.4233 63.6067 29.5852C63.1806 28.7424 62.9675 27.7505 62.9675 26.6094C62.9675 25.4872 63.1806 24.5024 63.6067 23.6548C64.0376 22.8026 64.6389 22.1397 65.4107 21.6662C66.1825 21.188 67.0892 20.9489 68.1309 20.9489C68.8032 20.9489 69.4377 21.0578 70.0343 21.2756C70.6356 21.4886 71.1659 21.8201 71.6252 22.2699C72.0892 22.7197 72.4538 23.2926 72.7189 23.9886C72.9841 24.6799 73.1167 25.5038 73.1167 26.4602V27.2486H64.1749V25.5156H70.6522C70.6474 25.0232 70.5409 24.5852 70.3326 24.2017C70.1242 23.8134 69.833 23.508 69.459 23.2855C69.0897 23.063 68.6588 22.9517 68.1664 22.9517C67.6408 22.9517 67.1792 23.0795 66.7814 23.3352C66.3837 23.5862 66.0736 23.9176 65.851 24.3295C65.6332 24.7367 65.522 25.1842 65.5172 25.6719V27.1847C65.5172 27.8191 65.6332 28.3636 65.8652 28.8182C66.0972 29.268 66.4216 29.6136 66.8382 29.8551C67.2549 30.0919 67.7426 30.2102 68.3013 30.2102C68.6754 30.2102 69.0139 30.1581 69.3169 30.054C69.62 29.9451 69.8828 29.7865 70.1053 29.5781C70.3278 29.3698 70.4959 29.1117 70.6096 28.804L73.0101 29.0739C72.8586 29.7083 72.5698 30.2623 72.1436 30.7358C71.7222 31.2045 71.1825 31.5691 70.5243 31.8295C69.8662 32.0852 69.1133 32.2131 68.2658 32.2131ZM75.2917 32V21.0909H77.7846V22.9091H77.8983C78.0971 22.2794 78.438 21.794 78.921 21.4531C79.4087 21.1075 79.965 20.9347 80.59 20.9347C80.7321 20.9347 80.8907 20.9418 81.0659 20.956C81.2458 20.9654 81.3949 20.982 81.5133 21.0057V23.3707C81.4044 23.3329 81.2316 23.2997 80.9949 23.2713C80.7628 23.2382 80.5379 23.2216 80.3201 23.2216C79.8514 23.2216 79.43 23.3234 79.0559 23.527C78.6866 23.7259 78.3954 24.0028 78.1824 24.358C77.9693 24.7131 77.8627 25.1226 77.8627 25.5866V32H75.2917ZM85.7924 25.608V32H83.2214V21.0909H85.6788V22.9446H85.8066C86.0576 22.3338 86.4577 21.8485 87.0069 21.4886C87.5609 21.1288 88.2451 20.9489 89.0595 20.9489C89.8123 20.9489 90.4681 21.1098 91.0268 21.4318C91.5903 21.7538 92.0259 22.2202 92.3336 22.831C92.6461 23.4418 92.8 24.1828 92.7953 25.054V32H90.2243V25.4517C90.2243 24.7225 90.0349 24.152 89.6561 23.7401C89.282 23.3281 88.7636 23.1222 88.1007 23.1222C87.6509 23.1222 87.2508 23.2216 86.9004 23.4205C86.5547 23.6146 86.2825 23.8963 86.0836 24.2656C85.8895 24.6349 85.7924 25.0824 85.7924 25.608ZM100.238 32.2131C99.1447 32.2131 98.2001 31.9858 97.4047 31.5312C96.6139 31.072 96.0055 30.4233 95.5794 29.5852C95.1532 28.7424 94.9402 27.7505 94.9402 26.6094C94.9402 25.4872 95.1532 24.5024 95.5794 23.6548C96.0102 22.8026 96.6116 22.1397 97.3833 21.6662C98.1551 21.188 99.0618 20.9489 100.104 20.9489C100.776 20.9489 101.41 21.0578 102.007 21.2756C102.608 21.4886 103.139 21.8201 103.598 22.2699C104.062 22.7197 104.426 23.2926 104.692 23.9886C104.957 24.6799 105.089 25.5038 105.089 26.4602V27.2486H96.1475V25.5156H102.625C102.62 25.0232 102.514 24.5852 102.305 24.2017C102.097 23.8134 101.806 23.508 101.432 23.2855C101.062 23.063 100.631 22.9517 100.139 22.9517C99.6135 22.9517 99.1518 23.0795 98.7541 23.3352C98.3564 23.5862 98.0462 23.9176 97.8237 24.3295C97.6059 24.7367 97.4946 25.1842 97.4899 25.6719V27.1847C97.4899 27.8191 97.6059 28.3636 97.8379 28.8182C98.0699 29.268 98.3942 29.6136 98.8109 29.8551C99.2276 30.0919 99.7153 30.2102 100.274 30.2102C100.648 30.2102 100.987 30.1581 101.29 30.054C101.593 29.9451 101.855 29.7865 102.078 29.5781C102.3 29.3698 102.469 29.1117 102.582 28.804L104.983 29.0739C104.831 29.7083 104.542 30.2623 104.116 30.7358C103.695 31.2045 103.155 31.5691 102.497 31.8295C101.839 32.0852 101.086 32.2131 100.238 32.2131ZM112.712 21.0909V23.0795H106.441V21.0909H112.712ZM107.989 18.4773H110.56V28.7188C110.56 29.0644 110.612 29.3295 110.716 29.5142C110.825 29.6941 110.967 29.8172 111.142 29.8835C111.317 29.9498 111.512 29.983 111.725 29.983C111.886 29.983 112.032 29.9711 112.165 29.9474C112.302 29.9238 112.406 29.9025 112.477 29.8835L112.911 31.8935C112.773 31.9408 112.577 31.9929 112.321 32.0497C112.07 32.1065 111.762 32.1397 111.398 32.1491C110.754 32.1681 110.174 32.071 109.658 31.858C109.142 31.6402 108.732 31.304 108.429 30.8494C108.131 30.3949 107.984 29.8267 107.989 29.1449V18.4773ZM119.937 32V17.4545H129.255V19.6634H122.572V23.6122H128.616V25.821H122.572V32H119.937ZM131.542 32V21.0909H134.113V32H131.542ZM132.834 19.5426C132.427 19.5426 132.077 19.4077 131.783 19.1378C131.49 18.8632 131.343 18.5341 131.343 18.1506C131.343 17.7623 131.49 17.4332 131.783 17.1634C132.077 16.8887 132.427 16.7514 132.834 16.7514C133.246 16.7514 133.597 16.8887 133.885 17.1634C134.179 17.4332 134.326 17.7623 134.326 18.1506C134.326 18.5341 134.179 18.8632 133.885 19.1378C133.597 19.4077 133.246 19.5426 132.834 19.5426ZM136.87 32V17.4545H139.441V22.8949H139.548C139.68 22.6297 139.867 22.348 140.109 22.0497C140.35 21.7467 140.677 21.4886 141.089 21.2756C141.501 21.0578 142.026 20.9489 142.666 20.9489C143.508 20.9489 144.268 21.1643 144.945 21.5952C145.627 22.0213 146.167 22.6534 146.565 23.4915C146.967 24.3248 147.169 25.3475 147.169 26.5597C147.169 27.7576 146.972 28.7756 146.579 29.6136C146.186 30.4517 145.651 31.0909 144.974 31.5312C144.297 31.9716 143.53 32.1918 142.673 32.1918C142.048 32.1918 141.529 32.0876 141.117 31.8793C140.705 31.6709 140.374 31.42 140.123 31.1264C139.877 30.8281 139.685 30.5464 139.548 30.2812H139.399V32H136.87ZM139.392 26.5455C139.392 27.2509 139.491 27.8688 139.69 28.3991C139.893 28.9295 140.185 29.3437 140.563 29.642C140.947 29.9356 141.411 30.0824 141.955 30.0824C142.524 30.0824 142.999 29.9309 143.383 29.6278C143.767 29.3201 144.055 28.901 144.249 28.3707C144.448 27.8357 144.548 27.2273 144.548 26.5455C144.548 25.8684 144.451 25.267 144.257 24.7415C144.062 24.2159 143.774 23.804 143.39 23.5057C143.007 23.2074 142.528 23.0582 141.955 23.0582C141.406 23.0582 140.94 23.2027 140.556 23.4915C140.173 23.7803 139.882 24.1851 139.683 24.706C139.489 25.2268 139.392 25.84 139.392 26.5455ZM149.354 32V21.0909H151.847V22.9091H151.961C152.16 22.2794 152.501 21.794 152.983 21.4531C153.471 21.1075 154.028 20.9347 154.653 20.9347C154.795 20.9347 154.953 20.9418 155.128 20.956C155.308 20.9654 155.457 20.982 155.576 21.0057V23.3707C155.467 23.3329 155.294 23.2997 155.057 23.2713C154.825 23.2382 154.6 23.2216 154.383 23.2216C153.914 23.2216 153.492 23.3234 153.118 23.527C152.749 23.7259 152.458 24.0028 152.245 24.358C152.032 24.7131 151.925 25.1226 151.925 25.5866V32H149.354ZM160.228 32.2202C159.537 32.2202 158.914 32.0971 158.36 31.8509C157.811 31.5999 157.375 31.2306 157.053 30.7429C156.736 30.2552 156.577 29.6539 156.577 28.9389C156.577 28.3234 156.691 27.8144 156.918 27.4119C157.145 27.0095 157.456 26.6875 157.849 26.446C158.242 26.2045 158.684 26.0223 159.177 25.8991C159.674 25.7713 160.188 25.679 160.718 25.6222C161.357 25.5559 161.876 25.4967 162.273 25.4446C162.671 25.3878 162.96 25.3026 163.14 25.1889C163.324 25.0705 163.417 24.8883 163.417 24.642V24.5994C163.417 24.0644 163.258 23.6501 162.941 23.3565C162.624 23.063 162.167 22.9162 161.57 22.9162C160.94 22.9162 160.441 23.0535 160.072 23.3281C159.707 23.6027 159.461 23.9271 159.333 24.3011L156.932 23.9602C157.122 23.2973 157.434 22.7434 157.87 22.2983C158.305 21.8485 158.838 21.5123 159.468 21.2898C160.098 21.0625 160.794 20.9489 161.556 20.9489C162.081 20.9489 162.605 21.0104 163.126 21.1335C163.646 21.2566 164.122 21.4602 164.553 21.7443C164.984 22.0237 165.33 22.4048 165.59 22.8878C165.855 23.3707 165.988 23.9744 165.988 24.6989V32H163.516V30.5014H163.431C163.275 30.8045 163.055 31.0885 162.77 31.3537C162.491 31.6141 162.138 31.8248 161.712 31.9858C161.291 32.142 160.796 32.2202 160.228 32.2202ZM160.895 30.331C161.412 30.331 161.859 30.2292 162.238 30.0256C162.617 29.8172 162.908 29.5426 163.111 29.2017C163.32 28.8608 163.424 28.4891 163.424 28.0866V26.8011C163.343 26.8674 163.206 26.929 163.012 26.9858C162.823 27.0426 162.609 27.0923 162.373 27.1349C162.136 27.1776 161.902 27.2154 161.67 27.2486C161.438 27.2817 161.236 27.3101 161.066 27.3338C160.682 27.3859 160.339 27.4711 160.036 27.5895C159.733 27.7079 159.494 27.8736 159.319 28.0866C159.144 28.295 159.056 28.5649 159.056 28.8963C159.056 29.3698 159.229 29.7273 159.574 29.9688C159.92 30.2102 160.36 30.331 160.895 30.331ZM186.645 24.7273C186.645 26.2945 186.351 27.6368 185.764 28.7543C185.182 29.867 184.386 30.7192 183.378 31.3111C182.374 31.9029 181.235 32.1989 179.961 32.1989C178.688 32.1989 177.547 31.9029 176.538 31.3111C175.534 30.7145 174.739 29.8598 174.152 28.7472C173.569 27.6297 173.278 26.2898 173.278 24.7273C173.278 23.16 173.569 21.8201 174.152 20.7074C174.739 19.59 175.534 18.7353 176.538 18.1435C177.547 17.5516 178.688 17.2557 179.961 17.2557C181.235 17.2557 182.374 17.5516 183.378 18.1435C184.386 18.7353 185.182 19.59 185.764 20.7074C186.351 21.8201 186.645 23.16 186.645 24.7273ZM183.996 24.7273C183.996 23.6241 183.823 22.6937 183.477 21.9361C183.136 21.1738 182.663 20.5985 182.057 20.2102C181.451 19.8172 180.752 19.6207 179.961 19.6207C179.171 19.6207 178.472 19.8172 177.866 20.2102C177.26 20.5985 176.784 21.1738 176.439 21.9361C176.098 22.6937 175.927 23.6241 175.927 24.7273C175.927 25.8305 176.098 26.7633 176.439 27.5256C176.784 28.2831 177.26 28.8584 177.866 29.2514C178.472 29.6397 179.171 29.8338 179.961 29.8338C180.752 29.8338 181.451 29.6397 182.057 29.2514C182.663 28.8584 183.136 28.2831 183.477 27.5256C183.823 26.7633 183.996 25.8305 183.996 24.7273ZM178.974 16.0199L180.565 12.7741H183.079L180.899 16.0199H178.974ZM189.022 36.0909V21.0909H191.551V22.8949H191.7C191.832 22.6297 192.019 22.348 192.261 22.0497C192.502 21.7467 192.829 21.4886 193.241 21.2756C193.653 21.0578 194.178 20.9489 194.818 20.9489C195.66 20.9489 196.42 21.1643 197.097 21.5952C197.779 22.0213 198.319 22.6534 198.717 23.4915C199.119 24.3248 199.32 25.3475 199.32 26.5597C199.32 27.7576 199.124 28.7756 198.731 29.6136C198.338 30.4517 197.803 31.0909 197.126 31.5312C196.449 31.9716 195.682 32.1918 194.825 32.1918C194.2 32.1918 193.681 32.0876 193.269 31.8793C192.857 31.6709 192.526 31.42 192.275 31.1264C192.029 30.8281 191.837 30.5464 191.7 30.2812H191.593V36.0909H189.022ZM191.544 26.5455C191.544 27.2509 191.643 27.8688 191.842 28.3991C192.045 28.9295 192.337 29.3437 192.715 29.642C193.099 29.9356 193.563 30.0824 194.107 30.0824C194.676 30.0824 195.151 29.9309 195.535 29.6278C195.919 29.3201 196.207 28.901 196.401 28.3707C196.6 27.8357 196.7 27.2273 196.7 26.5455C196.7 25.8684 196.603 25.267 196.409 24.7415C196.214 24.2159 195.926 23.804 195.542 23.5057C195.159 23.2074 194.68 23.0582 194.107 23.0582C193.558 23.0582 193.092 23.2027 192.708 23.4915C192.325 23.7803 192.034 24.1851 191.835 24.706C191.641 25.2268 191.544 25.84 191.544 26.5455ZM206.97 21.0909V23.0795H200.698V21.0909H206.97ZM202.247 18.4773H204.818V28.7188C204.818 29.0644 204.87 29.3295 204.974 29.5142C205.083 29.6941 205.225 29.8172 205.4 29.8835C205.575 29.9498 205.769 29.983 205.982 29.983C206.143 29.983 206.29 29.9711 206.423 29.9474C206.56 29.9238 206.664 29.9025 206.735 29.8835L207.169 31.8935C207.031 31.9408 206.835 31.9929 206.579 32.0497C206.328 32.1065 206.02 32.1397 205.656 32.1491C205.012 32.1681 204.432 32.071 203.916 31.858C203.4 31.6402 202.99 31.304 202.687 30.8494C202.389 30.3949 202.242 29.8267 202.247 29.1449V18.4773ZM209.12 32V21.0909H211.691V32H209.12ZM210.412 19.5426C210.005 19.5426 209.655 19.4077 209.361 19.1378C209.068 18.8632 208.921 18.5341 208.921 18.1506C208.921 17.7623 209.068 17.4332 209.361 17.1634C209.655 16.8887 210.005 16.7514 210.412 16.7514C210.824 16.7514 211.175 16.8887 211.464 17.1634C211.757 17.4332 211.904 17.7623 211.904 18.1506C211.904 18.5341 211.757 18.8632 211.464 19.1378C211.175 19.4077 210.824 19.5426 210.412 19.5426ZM219.093 32.2131C218.004 32.2131 217.069 31.974 216.288 31.4957C215.511 31.0175 214.912 30.357 214.491 29.5142C214.074 28.6667 213.866 27.6913 213.866 26.5881C213.866 25.4801 214.079 24.5024 214.505 23.6548C214.931 22.8026 215.533 22.1397 216.309 21.6662C217.09 21.188 218.014 20.9489 219.079 20.9489C219.964 20.9489 220.748 21.1122 221.43 21.4389C222.116 21.7609 222.663 22.2178 223.07 22.8097C223.478 23.3968 223.71 24.0833 223.767 24.8693H221.309C221.21 24.3437 220.973 23.9058 220.599 23.5554C220.23 23.2003 219.735 23.0227 219.115 23.0227C218.589 23.0227 218.127 23.1648 217.73 23.4489C217.332 23.7282 217.022 24.1307 216.799 24.6562C216.581 25.1818 216.472 25.8116 216.472 26.5455C216.472 27.2888 216.581 27.928 216.799 28.4631C217.017 28.9934 217.322 29.4029 217.715 29.6918C218.113 29.9759 218.579 30.1179 219.115 30.1179C219.493 30.1179 219.832 30.0469 220.13 29.9048C220.433 29.758 220.686 29.5473 220.89 29.2727C221.094 28.9981 221.233 28.6643 221.309 28.2713H223.767C223.705 29.0431 223.478 29.7273 223.085 30.3239C222.692 30.9157 222.157 31.3797 221.48 31.7159C220.802 32.0473 220.007 32.2131 219.093 32.2131ZM229.017 32.2202C228.326 32.2202 227.703 32.0971 227.149 31.8509C226.6 31.5999 226.164 31.2306 225.842 30.7429C225.525 30.2552 225.366 29.6539 225.366 28.9389C225.366 28.3234 225.48 27.8144 225.707 27.4119C225.934 27.0095 226.245 26.6875 226.638 26.446C227.031 26.2045 227.473 26.0223 227.966 25.8991C228.463 25.7713 228.977 25.679 229.507 25.6222C230.146 25.5559 230.665 25.4967 231.062 25.4446C231.46 25.3878 231.749 25.3026 231.929 25.1889C232.113 25.0705 232.206 24.8883 232.206 24.642V24.5994C232.206 24.0644 232.047 23.6501 231.73 23.3565C231.413 23.063 230.956 22.9162 230.359 22.9162C229.729 22.9162 229.23 23.0535 228.861 23.3281C228.496 23.6027 228.25 23.9271 228.122 24.3011L225.721 23.9602C225.911 23.2973 226.223 22.7434 226.659 22.2983C227.095 21.8485 227.627 21.5123 228.257 21.2898C228.887 21.0625 229.583 20.9489 230.345 20.9489C230.871 20.9489 231.394 21.0104 231.915 21.1335C232.435 21.2566 232.911 21.4602 233.342 21.7443C233.773 22.0237 234.119 22.4048 234.379 22.8878C234.644 23.3707 234.777 23.9744 234.777 24.6989V32H232.305V30.5014H232.22C232.064 30.8045 231.844 31.0885 231.559 31.3537C231.28 31.6141 230.927 31.8248 230.501 31.9858C230.08 32.142 229.585 32.2202 229.017 32.2202ZM229.684 30.331C230.201 30.331 230.648 30.2292 231.027 30.0256C231.406 29.8172 231.697 29.5426 231.9 29.2017C232.109 28.8608 232.213 28.4891 232.213 28.0866V26.8011C232.132 26.8674 231.995 26.929 231.801 26.9858C231.612 27.0426 231.398 27.0923 231.162 27.1349C230.925 27.1776 230.691 27.2154 230.459 27.2486C230.227 27.2817 230.025 27.3101 229.855 27.3338C229.471 27.3859 229.128 27.4711 228.825 27.5895C228.522 27.7079 228.283 27.8736 228.108 28.0866C227.933 28.295 227.845 28.5649 227.845 28.8963C227.845 29.3698 228.018 29.7273 228.363 29.9688C228.709 30.2102 229.149 30.331 229.684 30.331ZM46.6435 47.7273V71H42.4276V51.8295H42.2912L36.848 55.3068V51.4432L42.6321 47.7273H46.6435ZM61.1548 71.4432C59.2836 71.4432 57.6776 70.9697 56.3366 70.0227C55.0033 69.0682 53.9768 67.6932 53.2571 65.8977C52.545 64.0947 52.1889 61.9242 52.1889 59.3864C52.1965 56.8485 52.5563 54.6894 53.2685 52.9091C53.9882 51.1212 55.0147 49.7576 56.348 48.8182C57.6889 47.8788 59.2912 47.4091 61.1548 47.4091C63.0185 47.4091 64.6207 47.8788 65.9616 48.8182C67.3026 49.7576 68.3291 51.1212 69.0412 52.9091C69.7609 54.697 70.1207 56.8561 70.1207 59.3864C70.1207 61.9318 69.7609 64.1061 69.0412 65.9091C68.3291 67.7045 67.3026 69.0758 65.9616 70.0227C64.6283 70.9697 63.026 71.4432 61.1548 71.4432ZM61.1548 67.8864C62.6094 67.8864 63.7571 67.1705 64.598 65.7386C65.4465 64.2992 65.8707 62.1818 65.8707 59.3864C65.8707 57.5379 65.6776 55.9848 65.2912 54.7273C64.9048 53.4697 64.3594 52.5227 63.6548 51.8864C62.9503 51.2424 62.117 50.9205 61.1548 50.9205C59.7079 50.9205 58.5639 51.6402 57.723 53.0795C56.8821 54.5114 56.4579 56.6136 56.4503 59.3864C56.4427 61.2424 56.6283 62.803 57.0071 64.0682C57.3935 65.3333 57.9389 66.2879 58.6435 66.9318C59.348 67.5682 60.1851 67.8864 61.1548 67.8864ZM82.4986 71.4432C80.6274 71.4432 79.0213 70.9697 77.6804 70.0227C76.3471 69.0682 75.3205 67.6932 74.6009 65.8977C73.8887 64.0947 73.5327 61.9242 73.5327 59.3864C73.5402 56.8485 73.9001 54.6894 74.6122 52.9091C75.3319 51.1212 76.3584 49.7576 77.6918 48.8182C79.0327 47.8788 80.6349 47.4091 82.4986 47.4091C84.3622 47.4091 85.9645 47.8788 87.3054 48.8182C88.6463 49.7576 89.6728 51.1212 90.3849 52.9091C91.1046 54.697 91.4645 56.8561 91.4645 59.3864C91.4645 61.9318 91.1046 64.1061 90.3849 65.9091C89.6728 67.7045 88.6463 69.0758 87.3054 70.0227C85.9721 70.9697 84.3698 71.4432 82.4986 71.4432ZM82.4986 67.8864C83.9531 67.8864 85.1009 67.1705 85.9418 65.7386C86.7902 64.2992 87.2145 62.1818 87.2145 59.3864C87.2145 57.5379 87.0213 55.9848 86.6349 54.7273C86.2486 53.4697 85.7031 52.5227 84.9986 51.8864C84.294 51.2424 83.4607 50.9205 82.4986 50.9205C81.0516 50.9205 79.9077 51.6402 79.0668 53.0795C78.2259 54.5114 77.8016 56.6136 77.794 59.3864C77.7865 61.2424 77.9721 62.803 78.3509 64.0682C78.7372 65.3333 79.2827 66.2879 79.9872 66.9318C80.6918 67.5682 81.5289 67.8864 82.4986 67.8864ZM103.842 71.4432C101.971 71.4432 100.365 70.9697 99.0241 70.0227C97.6908 69.0682 96.6643 67.6932 95.9446 65.8977C95.2325 64.0947 94.8764 61.9242 94.8764 59.3864C94.884 56.8485 95.2438 54.6894 95.956 52.9091C96.6757 51.1212 97.7022 49.7576 99.0355 48.8182C100.376 47.8788 101.979 47.4091 103.842 47.4091C105.706 47.4091 107.308 47.8788 108.649 48.8182C109.99 49.7576 111.017 51.1212 111.729 52.9091C112.448 54.697 112.808 56.8561 112.808 59.3864C112.808 61.9318 112.448 64.1061 111.729 65.9091C111.017 67.7045 109.99 69.0758 108.649 70.0227C107.316 70.9697 105.714 71.4432 103.842 71.4432ZM103.842 67.8864C105.297 67.8864 106.445 67.1705 107.286 65.7386C108.134 64.2992 108.558 62.1818 108.558 59.3864C108.558 57.5379 108.365 55.9848 107.979 54.7273C107.592 53.4697 107.047 52.5227 106.342 51.8864C105.638 51.2424 104.804 50.9205 103.842 50.9205C102.395 50.9205 101.251 51.6402 100.411 53.0795C99.5696 54.5114 99.1454 56.6136 99.1378 59.3864C99.1302 61.2424 99.3158 62.803 99.6946 64.0682C100.081 65.3333 100.626 66.2879 101.331 66.9318C102.036 67.5682 102.873 67.8864 103.842 67.8864ZM124.749 47.7273H129.908L136.817 64.5909H137.089L143.999 47.7273H149.158V71H145.112V55.0114H144.896L138.464 70.9318H135.442L129.01 54.9773H128.794V71H124.749V47.7273ZM153.749 71V47.7273H168.885V51.2614H157.964V57.5795H168.101V61.1136H157.964V67.4659H168.976V71H153.749ZM188.777 55.1591C188.588 54.5455 188.326 53.9962 187.993 53.5114C187.667 53.0189 187.273 52.5985 186.811 52.25C186.357 51.9015 185.834 51.6402 185.243 51.4659C184.652 51.2841 184.008 51.1932 183.311 51.1932C182.061 51.1932 180.947 51.5076 179.97 52.1364C178.993 52.7652 178.224 53.6894 177.663 54.9091C177.11 56.1212 176.834 57.5985 176.834 59.3409C176.834 61.0985 177.11 62.5871 177.663 63.8068C178.216 65.0265 178.985 65.9545 179.97 66.5909C180.955 67.2197 182.099 67.5341 183.402 67.5341C184.584 67.5341 185.607 67.3068 186.47 66.8523C187.341 66.3977 188.012 65.7538 188.482 64.9205C188.951 64.0795 189.186 63.0947 189.186 61.9659L190.141 62.1136H183.822V58.8182H193.266V61.6136C193.266 63.6061 192.841 65.3295 191.993 66.7841C191.144 68.2386 189.978 69.3598 188.493 70.1477C187.008 70.928 185.304 71.3182 183.379 71.3182C181.235 71.3182 179.353 70.8371 177.732 69.875C176.118 68.9053 174.857 67.5303 173.947 65.75C173.046 63.9621 172.595 61.8409 172.595 59.3864C172.595 57.5076 172.86 55.8295 173.391 54.3523C173.929 52.875 174.679 51.6212 175.641 50.5909C176.603 49.553 177.732 48.7652 179.027 48.2273C180.322 47.6818 181.732 47.4091 183.254 47.4091C184.542 47.4091 185.743 47.5985 186.857 47.9773C187.97 48.3485 188.959 48.8788 189.822 49.5682C190.694 50.2576 191.41 51.0758 191.97 52.0227C192.531 52.9697 192.898 54.0152 193.072 55.1591H188.777ZM199.612 71H195.112L203.305 47.7273H208.51L216.714 71H212.214L205.999 52.5H205.817L199.612 71ZM199.76 61.875H212.033V65.2614H199.76V61.875ZM232.053 54.125C231.946 53.1326 231.5 52.3598 230.712 51.8068C229.931 51.2538 228.916 50.9773 227.666 50.9773C226.787 50.9773 226.034 51.1098 225.405 51.375C224.776 51.6402 224.295 52 223.962 52.4545C223.628 52.9091 223.458 53.428 223.45 54.0114C223.45 54.4962 223.56 54.9167 223.78 55.2727C224.007 55.6288 224.314 55.9318 224.7 56.1818C225.087 56.4242 225.515 56.6288 225.984 56.7955C226.454 56.9621 226.928 57.1023 227.405 57.2159L229.587 57.7614C230.465 57.9659 231.31 58.2424 232.121 58.5909C232.939 58.9394 233.67 59.3788 234.314 59.9091C234.965 60.4394 235.481 61.0795 235.859 61.8295C236.238 62.5795 236.428 63.4583 236.428 64.4659C236.428 65.8295 236.079 67.0303 235.382 68.0682C234.685 69.0985 233.678 69.9053 232.359 70.4886C231.049 71.0644 229.462 71.3523 227.598 71.3523C225.787 71.3523 224.215 71.072 222.882 70.5114C221.556 69.9508 220.518 69.1326 219.768 68.0568C219.026 66.9811 218.625 65.6705 218.564 64.125H222.712C222.772 64.9356 223.022 65.6098 223.462 66.1477C223.901 66.6856 224.473 67.0871 225.178 67.3523C225.89 67.6174 226.685 67.75 227.564 67.75C228.481 67.75 229.284 67.6136 229.973 67.3409C230.67 67.0606 231.215 66.6742 231.609 66.1818C232.003 65.6818 232.204 65.0985 232.212 64.4318C232.204 63.8258 232.026 63.3258 231.678 62.9318C231.329 62.5303 230.84 62.197 230.212 61.9318C229.59 61.6591 228.863 61.4167 228.03 61.2045L225.382 60.5227C223.465 60.0303 221.95 59.2841 220.837 58.2841C219.731 57.2765 219.178 55.9394 219.178 54.2727C219.178 52.9015 219.549 51.7008 220.291 50.6705C221.041 49.6402 222.06 48.8409 223.348 48.2727C224.636 47.697 226.094 47.4091 227.723 47.4091C229.375 47.4091 230.821 47.697 232.064 48.2727C233.314 48.8409 234.295 49.6326 235.007 50.6477C235.719 51.6553 236.087 52.8144 236.109 54.125H232.053Z" fill="white"/>
<path d="M61.9986 162V138.727H70.7259C72.5137 138.727 74.0137 139.038 75.2259 139.659C76.4456 140.28 77.366 141.152 77.9872 142.273C78.616 143.386 78.9304 144.686 78.9304 146.17C78.9304 147.663 78.6122 148.958 77.9759 150.057C77.3471 151.148 76.419 151.992 75.1918 152.591C73.9645 153.182 72.4569 153.477 70.669 153.477H64.4531V149.977H70.1009C71.1463 149.977 72.0024 149.833 72.669 149.545C73.3357 149.25 73.8281 148.822 74.1463 148.261C74.4721 147.693 74.6349 146.996 74.6349 146.17C74.6349 145.345 74.4721 144.64 74.1463 144.057C73.8205 143.466 73.3243 143.019 72.6577 142.716C71.991 142.405 71.1312 142.25 70.0781 142.25H66.2145V162H61.9986ZM74.0213 151.455L79.7827 162H75.0781L69.419 151.455H74.0213ZM90.0838 164.909V135.818H91.9474V164.909H90.0838ZM95.4588 145.125C95.3527 144.133 94.9058 143.36 94.1179 142.807C93.3376 142.254 92.3224 141.977 91.0724 141.977C90.1937 141.977 89.4399 142.11 88.8111 142.375C88.1823 142.64 87.7012 143 87.3679 143.455C87.0346 143.909 86.8641 144.428 86.8565 145.011C86.8565 145.496 86.9664 145.917 87.1861 146.273C87.4134 146.629 87.7202 146.932 88.1065 147.182C88.4929 147.424 88.9209 147.629 89.3906 147.795C89.8603 147.962 90.3338 148.102 90.8111 148.216L92.9929 148.761C93.8717 148.966 94.7164 149.242 95.527 149.591C96.3452 149.939 97.0762 150.379 97.7202 150.909C98.3717 151.439 98.8868 152.08 99.2656 152.83C99.6444 153.58 99.8338 154.458 99.8338 155.466C99.8338 156.83 99.4853 158.03 98.7884 159.068C98.0914 160.098 97.0838 160.905 95.7656 161.489C94.455 162.064 92.8679 162.352 91.0043 162.352C89.1937 162.352 87.6217 162.072 86.2884 161.511C84.9626 160.951 83.9247 160.133 83.1747 159.057C82.4323 157.981 82.0308 156.67 81.9702 155.125H86.1179C86.1785 155.936 86.4285 156.61 86.8679 157.148C87.3073 157.686 87.8793 158.087 88.5838 158.352C89.2959 158.617 90.0914 158.75 90.9702 158.75C91.8868 158.75 92.6899 158.614 93.3793 158.341C94.0762 158.061 94.6217 157.674 95.0156 157.182C95.4096 156.682 95.6103 156.098 95.6179 155.432C95.6103 154.826 95.4323 154.326 95.0838 153.932C94.7353 153.53 94.2467 153.197 93.6179 152.932C92.9967 152.659 92.2694 152.417 91.4361 152.205L88.7884 151.523C86.8717 151.03 85.3565 150.284 84.2429 149.284C83.1368 148.277 82.5838 146.939 82.5838 145.273C82.5838 143.902 82.955 142.701 83.6974 141.67C84.4474 140.64 85.4664 139.841 86.7543 139.273C88.0421 138.697 89.5005 138.409 91.1293 138.409C92.7808 138.409 94.2277 138.697 95.4702 139.273C96.7202 139.841 97.7012 140.633 98.4134 141.648C99.1255 142.655 99.4929 143.814 99.5156 145.125H95.4588Z" fill="white"/>
<path d="M123.597 126.614C125.267 126.625 126.892 126.92 128.472 127.5C130.063 128.068 131.494 129 132.767 130.295C134.04 131.58 135.051 133.301 135.801 135.46C136.551 137.619 136.926 140.29 136.926 143.472C136.938 146.472 136.619 149.153 135.972 151.517C135.335 153.869 134.42 155.858 133.227 157.483C132.034 159.108 130.597 160.347 128.915 161.199C127.233 162.051 125.341 162.477 123.239 162.477C121.034 162.477 119.08 162.045 117.375 161.182C115.682 160.318 114.313 159.136 113.267 157.636C112.222 156.136 111.58 154.42 111.341 152.489H117.562C117.881 153.875 118.528 154.977 119.506 155.795C120.494 156.602 121.739 157.006 123.239 157.006C125.659 157.006 127.523 155.955 128.83 153.852C130.136 151.75 130.79 148.83 130.79 145.091H130.551C129.994 146.091 129.273 146.955 128.386 147.682C127.5 148.398 126.494 148.949 125.369 149.335C124.256 149.722 123.074 149.915 121.824 149.915C119.778 149.915 117.938 149.426 116.301 148.449C114.676 147.472 113.386 146.131 112.432 144.426C111.489 142.722 111.011 140.773 111 138.58C111 136.307 111.523 134.267 112.568 132.46C113.625 130.642 115.097 129.21 116.983 128.165C118.869 127.108 121.074 126.591 123.597 126.614ZM123.614 131.727C122.386 131.727 121.278 132.028 120.29 132.631C119.313 133.222 118.54 134.028 117.972 135.051C117.415 136.062 117.136 137.193 117.136 138.443C117.148 139.682 117.426 140.807 117.972 141.818C118.528 142.83 119.284 143.631 120.239 144.222C121.205 144.812 122.307 145.108 123.545 145.108C124.466 145.108 125.324 144.932 126.119 144.58C126.915 144.227 127.608 143.739 128.199 143.114C128.801 142.477 129.267 141.756 129.597 140.949C129.938 140.142 130.102 139.29 130.091 138.392C130.091 137.199 129.807 136.097 129.239 135.085C128.682 134.074 127.915 133.261 126.938 132.648C125.972 132.034 124.864 131.727 123.614 131.727ZM154.722 126.614C156.392 126.625 158.017 126.92 159.597 127.5C161.188 128.068 162.619 129 163.892 130.295C165.165 131.58 166.176 133.301 166.926 135.46C167.676 137.619 168.051 140.29 168.051 143.472C168.063 146.472 167.744 149.153 167.097 151.517C166.46 153.869 165.545 155.858 164.352 157.483C163.159 159.108 161.722 160.347 160.04 161.199C158.358 162.051 156.466 162.477 154.364 162.477C152.159 162.477 150.205 162.045 148.5 161.182C146.807 160.318 145.438 159.136 144.392 157.636C143.347 156.136 142.705 154.42 142.466 152.489H148.688C149.006 153.875 149.653 154.977 150.631 155.795C151.619 156.602 152.864 157.006 154.364 157.006C156.784 157.006 158.648 155.955 159.955 153.852C161.261 151.75 161.915 148.83 161.915 145.091H161.676C161.119 146.091 160.398 146.955 159.511 147.682C158.625 148.398 157.619 148.949 156.494 149.335C155.381 149.722 154.199 149.915 152.949 149.915C150.903 149.915 149.063 149.426 147.426 148.449C145.801 147.472 144.511 146.131 143.557 144.426C142.614 142.722 142.136 140.773 142.125 138.58C142.125 136.307 142.648 134.267 143.693 132.46C144.75 130.642 146.222 129.21 148.108 128.165C149.994 127.108 152.199 126.591 154.722 126.614ZM154.739 131.727C153.511 131.727 152.403 132.028 151.415 132.631C150.438 133.222 149.665 134.028 149.097 135.051C148.54 136.062 148.261 137.193 148.261 138.443C148.273 139.682 148.551 140.807 149.097 141.818C149.653 142.83 150.409 143.631 151.364 144.222C152.33 144.812 153.432 145.108 154.67 145.108C155.591 145.108 156.449 144.932 157.244 144.58C158.04 144.227 158.733 143.739 159.324 143.114C159.926 142.477 160.392 141.756 160.722 140.949C161.063 140.142 161.227 139.29 161.216 138.392C161.216 137.199 160.932 136.097 160.364 135.085C159.807 134.074 159.04 133.261 158.062 132.648C157.097 132.034 155.989 131.727 154.739 131.727Z" fill="white"/>
<path d="M180.518 135.42L180.352 136.827C180.233 137.901 180.02 138.991 179.713 140.099C179.414 141.216 179.099 142.243 178.767 143.18C178.434 144.118 178.166 144.855 177.961 145.392H174.842C174.961 144.872 175.123 144.165 175.328 143.27C175.541 142.375 175.745 141.369 175.941 140.253C176.137 139.136 176.27 138.003 176.338 136.852L176.427 135.42H180.518ZM194.354 112.46C195.607 112.469 196.825 112.69 198.01 113.125C199.203 113.551 200.277 114.25 201.232 115.222C202.186 116.185 202.945 117.476 203.507 119.095C204.07 120.714 204.351 122.717 204.351 125.104C204.359 127.354 204.121 129.365 203.635 131.138C203.158 132.902 202.472 134.393 201.577 135.612C200.682 136.831 199.604 137.76 198.342 138.399C197.081 139.038 195.662 139.358 194.085 139.358C192.432 139.358 190.966 139.034 189.688 138.386C188.418 137.739 187.391 136.852 186.607 135.727C185.822 134.602 185.341 133.315 185.162 131.866H189.828C190.067 132.906 190.553 133.733 191.286 134.347C192.027 134.952 192.96 135.254 194.085 135.254C195.901 135.254 197.298 134.466 198.278 132.889C199.259 131.312 199.749 129.122 199.749 126.318H199.57C199.152 127.068 198.611 127.716 197.946 128.261C197.281 128.798 196.527 129.212 195.683 129.501C194.848 129.791 193.962 129.936 193.024 129.936C191.49 129.936 190.109 129.57 188.882 128.837C187.663 128.104 186.696 127.098 185.98 125.82C185.273 124.541 184.915 123.08 184.906 121.435C184.906 119.73 185.298 118.2 186.082 116.845C186.875 115.482 187.979 114.408 189.393 113.624C190.808 112.831 192.462 112.443 194.354 112.46ZM194.366 116.295C193.446 116.295 192.615 116.521 191.874 116.973C191.141 117.416 190.561 118.021 190.135 118.788C189.717 119.547 189.509 120.395 189.509 121.332C189.517 122.261 189.726 123.105 190.135 123.864C190.553 124.622 191.119 125.223 191.835 125.666C192.56 126.109 193.386 126.331 194.315 126.331C195.006 126.331 195.649 126.199 196.246 125.935C196.842 125.67 197.362 125.304 197.805 124.835C198.257 124.358 198.607 123.817 198.854 123.212C199.109 122.607 199.233 121.967 199.224 121.294C199.224 120.399 199.011 119.572 198.585 118.814C198.168 118.055 197.592 117.446 196.859 116.986C196.135 116.526 195.304 116.295 194.366 116.295ZM218.286 139.499C216.18 139.499 214.374 138.966 212.865 137.901C211.365 136.827 210.21 135.28 209.401 133.26C208.599 131.232 208.199 128.79 208.199 125.935C208.207 123.08 208.612 120.651 209.413 118.648C210.223 116.636 211.378 115.102 212.878 114.045C214.386 112.989 216.189 112.46 218.286 112.46C220.382 112.46 222.185 112.989 223.693 114.045C225.202 115.102 226.357 116.636 227.158 118.648C227.967 120.659 228.372 123.088 228.372 125.935C228.372 128.798 227.967 131.244 227.158 133.273C226.357 135.293 225.202 136.835 223.693 137.901C222.193 138.966 220.391 139.499 218.286 139.499ZM218.286 135.497C219.922 135.497 221.213 134.692 222.159 133.081C223.114 131.462 223.591 129.08 223.591 125.935C223.591 123.855 223.374 122.108 222.939 120.693C222.504 119.278 221.891 118.213 221.098 117.497C220.305 116.773 219.368 116.411 218.286 116.411C216.658 116.411 215.371 117.22 214.425 118.839C213.479 120.45 213.001 122.815 212.993 125.935C212.984 128.023 213.193 129.778 213.619 131.202C214.054 132.625 214.668 133.699 215.46 134.423C216.253 135.139 217.195 135.497 218.286 135.497Z" fill="white"/>
<path d="M58.343 112V100.364H62.7067C63.6006 100.364 64.3506 100.53 64.9567 100.864C65.5665 101.197 66.0268 101.655 66.3374 102.239C66.6518 102.818 66.8089 103.477 66.8089 104.216C66.8089 104.962 66.6518 105.625 66.3374 106.205C66.023 106.784 65.5589 107.241 64.9453 107.574C64.3317 107.903 63.576 108.068 62.6783 108.068H59.7862V106.335H62.3942C62.9169 106.335 63.3449 106.244 63.6783 106.062C64.0116 105.881 64.2578 105.631 64.4169 105.312C64.5798 104.994 64.6612 104.629 64.6612 104.216C64.6612 103.803 64.5798 103.439 64.4169 103.125C64.2578 102.811 64.0097 102.566 63.6726 102.392C63.3393 102.214 62.9093 102.125 62.3828 102.125H60.451V112H58.343ZM72.2308 112.17C71.3786 112.17 70.6399 111.983 70.0149 111.608C69.3899 111.233 68.9051 110.708 68.5604 110.034C68.2195 109.36 68.049 108.572 68.049 107.67C68.049 106.769 68.2195 105.979 68.5604 105.301C68.9051 104.623 69.3899 104.097 70.0149 103.722C70.6399 103.347 71.3786 103.159 72.2308 103.159C73.0831 103.159 73.8217 103.347 74.4467 103.722C75.0717 104.097 75.5547 104.623 75.8956 105.301C76.2403 105.979 76.4126 106.769 76.4126 107.67C76.4126 108.572 76.2403 109.36 75.8956 110.034C75.5547 110.708 75.0717 111.233 74.4467 111.608C73.8217 111.983 73.0831 112.17 72.2308 112.17ZM72.2422 110.523C72.7043 110.523 73.0907 110.396 73.4013 110.142C73.7119 109.884 73.9429 109.54 74.0945 109.108C74.2498 108.676 74.3274 108.195 74.3274 107.665C74.3274 107.131 74.2498 106.648 74.0945 106.216C73.9429 105.78 73.7119 105.434 73.4013 105.176C73.0907 104.919 72.7043 104.79 72.2422 104.79C71.7687 104.79 71.3748 104.919 71.0604 105.176C70.7498 105.434 70.5168 105.78 70.3615 106.216C70.21 106.648 70.1342 107.131 70.1342 107.665C70.1342 108.195 70.21 108.676 70.3615 109.108C70.5168 109.54 70.7498 109.884 71.0604 110.142C71.3748 110.396 71.7687 110.523 72.2422 110.523ZM78.1584 112V103.273H80.1527V104.727H80.2436C80.4027 104.223 80.6754 103.835 81.0618 103.562C81.4519 103.286 81.897 103.148 82.397 103.148C82.5107 103.148 82.6375 103.153 82.7777 103.165C82.9216 103.172 83.041 103.186 83.1357 103.205V105.097C83.0485 105.066 82.9103 105.04 82.7209 105.017C82.5353 104.991 82.3554 104.977 82.1811 104.977C81.8061 104.977 81.469 105.059 81.1697 105.222C80.8743 105.381 80.6413 105.602 80.4709 105.886C80.3004 106.17 80.2152 106.498 80.2152 106.869V112H78.1584ZM90.9822 112.176C90.4292 112.176 89.9311 112.078 89.4879 111.881C89.0485 111.68 88.7 111.384 88.4425 110.994C88.1887 110.604 88.0618 110.123 88.0618 109.551C88.0618 109.059 88.1527 108.652 88.3345 108.33C88.5163 108.008 88.7644 107.75 89.0788 107.557C89.3932 107.364 89.7474 107.218 90.1413 107.119C90.5391 107.017 90.95 106.943 91.3743 106.898C91.8857 106.845 92.3004 106.797 92.6186 106.756C92.9368 106.71 93.1679 106.642 93.3118 106.551C93.4595 106.456 93.5334 106.311 93.5334 106.114V106.08C93.5334 105.652 93.4065 105.32 93.1527 105.085C92.8989 104.85 92.5334 104.733 92.0561 104.733C91.5523 104.733 91.1527 104.843 90.8572 105.062C90.5656 105.282 90.3686 105.542 90.2663 105.841L88.3459 105.568C88.4974 105.038 88.7474 104.595 89.0959 104.239C89.4444 103.879 89.8705 103.61 90.3743 103.432C90.8781 103.25 91.4349 103.159 92.0447 103.159C92.4652 103.159 92.8838 103.208 93.3004 103.307C93.7171 103.405 94.0978 103.568 94.4425 103.795C94.7872 104.019 95.0637 104.324 95.272 104.71C95.4841 105.097 95.5902 105.58 95.5902 106.159V112H93.6129V110.801H93.5447C93.4197 111.044 93.2436 111.271 93.0163 111.483C92.7929 111.691 92.5107 111.86 92.1697 111.989C91.8326 112.114 91.4368 112.176 90.9822 112.176ZM91.5163 110.665C91.9292 110.665 92.2872 110.583 92.5902 110.42C92.8932 110.254 93.1262 110.034 93.2891 109.761C93.4557 109.489 93.5391 109.191 93.5391 108.869V107.841C93.4747 107.894 93.3648 107.943 93.2095 107.989C93.058 108.034 92.8875 108.074 92.6982 108.108C92.5088 108.142 92.3213 108.172 92.1357 108.199C91.95 108.225 91.7891 108.248 91.6527 108.267C91.3459 108.309 91.0713 108.377 90.8288 108.472C90.5864 108.566 90.3951 108.699 90.255 108.869C90.1148 109.036 90.0447 109.252 90.0447 109.517C90.0447 109.896 90.183 110.182 90.4595 110.375C90.736 110.568 91.0883 110.665 91.5163 110.665ZM97.6584 115.273V103.273H99.6811V104.716H99.8004C99.9065 104.504 100.056 104.278 100.249 104.04C100.442 103.797 100.704 103.591 101.033 103.42C101.363 103.246 101.783 103.159 102.295 103.159C102.969 103.159 103.577 103.331 104.119 103.676C104.664 104.017 105.096 104.523 105.414 105.193C105.736 105.86 105.897 106.678 105.897 107.648C105.897 108.606 105.74 109.42 105.425 110.091C105.111 110.761 104.683 111.273 104.141 111.625C103.6 111.977 102.986 112.153 102.3 112.153C101.8 112.153 101.386 112.07 101.056 111.903C100.727 111.737 100.461 111.536 100.261 111.301C100.064 111.062 99.9103 110.837 99.8004 110.625H99.7152V115.273H97.6584ZM99.6754 107.636C99.6754 108.201 99.755 108.695 99.9141 109.119C100.077 109.544 100.31 109.875 100.613 110.114C100.92 110.348 101.291 110.466 101.727 110.466C102.181 110.466 102.562 110.345 102.869 110.102C103.175 109.856 103.406 109.521 103.562 109.097C103.721 108.669 103.8 108.182 103.8 107.636C103.8 107.095 103.723 106.614 103.567 106.193C103.412 105.773 103.181 105.443 102.874 105.205C102.567 104.966 102.185 104.847 101.727 104.847C101.287 104.847 100.914 104.962 100.607 105.193C100.3 105.424 100.067 105.748 99.9084 106.165C99.7531 106.581 99.6754 107.072 99.6754 107.636ZM111.522 112.17C110.647 112.17 109.891 111.989 109.255 111.625C108.622 111.258 108.136 110.739 107.795 110.068C107.454 109.394 107.283 108.6 107.283 107.688C107.283 106.79 107.454 106.002 107.795 105.324C108.139 104.642 108.621 104.112 109.238 103.733C109.855 103.35 110.581 103.159 111.414 103.159C111.952 103.159 112.46 103.246 112.937 103.42C113.418 103.591 113.842 103.856 114.21 104.216C114.581 104.576 114.872 105.034 115.085 105.591C115.297 106.144 115.403 106.803 115.403 107.568V108.199H108.249V106.812H113.431C113.427 106.419 113.342 106.068 113.175 105.761C113.009 105.451 112.776 105.206 112.477 105.028C112.181 104.85 111.836 104.761 111.442 104.761C111.022 104.761 110.653 104.864 110.335 105.068C110.016 105.269 109.768 105.534 109.59 105.864C109.416 106.189 109.327 106.547 109.323 106.938V108.148C109.323 108.655 109.416 109.091 109.602 109.455C109.787 109.814 110.047 110.091 110.38 110.284C110.713 110.473 111.103 110.568 111.55 110.568C111.85 110.568 112.121 110.527 112.363 110.443C112.605 110.356 112.816 110.229 112.994 110.062C113.172 109.896 113.306 109.689 113.397 109.443L115.317 109.659C115.196 110.167 114.965 110.61 114.624 110.989C114.287 111.364 113.855 111.655 113.329 111.864C112.802 112.068 112.2 112.17 111.522 112.17ZM119.2 106.886V112H117.143V103.273H119.109V104.756H119.211C119.412 104.267 119.732 103.879 120.171 103.591C120.614 103.303 121.162 103.159 121.813 103.159C122.415 103.159 122.94 103.288 123.387 103.545C123.838 103.803 124.186 104.176 124.433 104.665C124.683 105.153 124.806 105.746 124.802 106.443V112H122.745V106.761C122.745 106.178 122.594 105.722 122.29 105.392C121.991 105.062 121.576 104.898 121.046 104.898C120.686 104.898 120.366 104.977 120.086 105.136C119.809 105.292 119.592 105.517 119.433 105.812C119.277 106.108 119.2 106.466 119.2 106.886ZM129.404 112.176C128.851 112.176 128.353 112.078 127.91 111.881C127.47 111.68 127.122 111.384 126.864 110.994C126.611 110.604 126.484 110.123 126.484 109.551C126.484 109.059 126.575 108.652 126.756 108.33C126.938 108.008 127.186 107.75 127.501 107.557C127.815 107.364 128.169 107.218 128.563 107.119C128.961 107.017 129.372 106.943 129.796 106.898C130.308 106.845 130.722 106.797 131.04 106.756C131.359 106.71 131.59 106.642 131.734 106.551C131.881 106.456 131.955 106.311 131.955 106.114V106.08C131.955 105.652 131.828 105.32 131.575 105.085C131.321 104.85 130.955 104.733 130.478 104.733C129.974 104.733 129.575 104.843 129.279 105.062C128.987 105.282 128.79 105.542 128.688 105.841L126.768 105.568C126.919 105.038 127.169 104.595 127.518 104.239C127.866 103.879 128.292 103.61 128.796 103.432C129.3 103.25 129.857 103.159 130.467 103.159C130.887 103.159 131.306 103.208 131.722 103.307C132.139 103.405 132.52 103.568 132.864 103.795C133.209 104.019 133.486 104.324 133.694 104.71C133.906 105.097 134.012 105.58 134.012 106.159V112H132.035V110.801H131.967C131.842 111.044 131.665 111.271 131.438 111.483C131.215 111.691 130.933 111.86 130.592 111.989C130.254 112.114 129.859 112.176 129.404 112.176ZM129.938 110.665C130.351 110.665 130.709 110.583 131.012 110.42C131.315 110.254 131.548 110.034 131.711 109.761C131.878 109.489 131.961 109.191 131.961 108.869V107.841C131.897 107.894 131.787 107.943 131.631 107.989C131.48 108.034 131.309 108.074 131.12 108.108C130.931 108.142 130.743 108.172 130.558 108.199C130.372 108.225 130.211 108.248 130.075 108.267C129.768 108.309 129.493 108.377 129.251 108.472C129.008 108.566 128.817 108.699 128.677 108.869C128.537 109.036 128.467 109.252 128.467 109.517C128.467 109.896 128.605 110.182 128.881 110.375C129.158 110.568 129.51 110.665 129.938 110.665ZM142.978 105.58L141.103 105.784C141.05 105.595 140.957 105.417 140.825 105.25C140.696 105.083 140.522 104.949 140.302 104.847C140.082 104.744 139.813 104.693 139.495 104.693C139.067 104.693 138.707 104.786 138.415 104.972C138.128 105.157 137.986 105.398 137.989 105.693C137.986 105.947 138.078 106.153 138.268 106.312C138.461 106.472 138.779 106.602 139.222 106.705L140.711 107.023C141.537 107.201 142.15 107.483 142.552 107.869C142.957 108.256 143.162 108.761 143.165 109.386C143.162 109.936 143.001 110.42 142.683 110.841C142.368 111.258 141.931 111.583 141.37 111.818C140.809 112.053 140.165 112.17 139.438 112.17C138.37 112.17 137.51 111.947 136.859 111.5C136.207 111.049 135.819 110.422 135.694 109.619L137.7 109.426C137.79 109.82 137.984 110.117 138.279 110.318C138.575 110.519 138.959 110.619 139.433 110.619C139.921 110.619 140.313 110.519 140.609 110.318C140.908 110.117 141.058 109.869 141.058 109.574C141.058 109.324 140.961 109.117 140.768 108.955C140.578 108.792 140.283 108.667 139.881 108.58L138.393 108.267C137.556 108.093 136.936 107.799 136.535 107.386C136.133 106.97 135.934 106.443 135.938 105.807C135.934 105.269 136.08 104.803 136.376 104.409C136.675 104.011 137.09 103.705 137.62 103.489C138.154 103.269 138.77 103.159 139.467 103.159C140.489 103.159 141.294 103.377 141.881 103.812C142.472 104.248 142.838 104.837 142.978 105.58Z" fill="white"/>
</svg>
