<svg width="22" height="20" viewBox="0 0 22 20" fill="none" xmlns="http://www.w3.org/2000/svg">
<path fill-rule="evenodd" clip-rule="evenodd" d="M6 0.75C4.38503 0.75 2.92465 1.15363 1.86466 2.1379C0.79462 3.13152 0.25 4.60705 0.25 6.5V13.5C0.25 15.393 0.79462 16.8685 1.86466 17.8621C2.92465 18.8464 4.38503 19.25 6 19.25H16C17.615 19.25 19.0754 18.8464 20.1353 17.8621C21.2054 16.8685 21.75 15.393 21.75 13.5V6.5C21.75 4.60705 21.2054 3.13152 20.1353 2.1379C19.0754 1.15363 17.615 0.75 16 0.75H6ZM18.2285 6.3623C18.5562 6.10904 18.6166 5.63802 18.3633 5.31026C18.1101 4.98249 17.6391 4.9221 17.3113 5.17537L11.7642 9.4616C11.3141 9.8095 10.6858 9.8095 10.2356 9.4616L4.6886 5.17537C4.36083 4.9221 3.88982 4.98249 3.63655 5.31026C3.38328 5.63802 3.44367 6.10904 3.77144 6.3623L9.3185 10.6486C10.3089 11.4138 11.691 11.4138 12.6814 10.6486L18.2285 6.3623Z" fill="white"/>
</svg>
