<svg width="30" height="32" viewBox="0 0 30 32" fill="none" xmlns="http://www.w3.org/2000/svg">
<path d="M15 0C23.3 0 30 6.7 30 15C30 23.3 23.3 30 15 30C13 30 11.0998 29.5998 9.2998 28.7998L2.40039 31.9004C2.30039 32.0004 2.1 32 2 32C1.8001 32 1.50055 31.9 1.40039 31.7002C1.10039 31.4002 0.999609 30.9996 1.09961 30.5996L3.2002 24.2002C1.1002 21.6002 0 18.4 0 15C0 6.7 6.7 0 15 0ZM10.5 7C9.70005 7 8.99999 7.29986 8.5 7.7998C8.10002 8.29978 7.00013 9.39987 7 11.5996C7 13.3996 8.1002 15.1 8.7002 16V16.0996C10.6002 18.7996 13.0004 20.9004 15.4004 21.9004C17.5001 22.8002 18.7001 23 19.5 23C19.8999 23 20.2 23.0004 20.5 22.9004C21.8 22.7004 23.3002 21.7 23.7002 20.5C23.9002 19.8 24.1998 18.4996 23.7998 17.5996C23.5998 17.2001 23.2002 17.1001 22.9004 16.9004L22.7002 16.7998C22.7002 16.7998 20.4996 15.7996 20.0996 15.5996C19.2998 15.2999 18.4999 15.5003 18 16.2002L17.9004 16.4004C17.6005 16.7003 17.4001 17.0997 17.2002 17.2998C16.7002 17.0998 15.7996 16.8002 14.5996 15.7002C13.7997 15.0002 13.2004 14.0996 12.9004 13.5996L13.0996 13.4004C13.1996 13.4004 13.3004 13.2996 13.4004 13.0996C13.6002 12.8998 13.8004 12.7001 13.9004 12.4004C14.2004 11.9004 14.2004 11.3998 13.9004 10.7998C13.8004 10.6998 13.3996 9.8 13.0996 9L12.7002 8.2002C12.2002 7.2002 11.7 7 11 7H10.5Z" fill="white"/>
</svg>
