<svg width="120" height="24" viewBox="0 0 120 24" fill="none" xmlns="http://www.w3.org/2000/svg">
<path d="M11.1119 4.91115C11.3434 4.39177 11.4592 4.13208 11.6204 4.05211C11.7604 3.98263 11.9248 3.98263 12.0648 4.05211C12.226 4.13208 12.3418 4.39177 12.5733 4.91115L14.4173 9.04808C14.4858 9.20162 14.52 9.27839 14.573 9.33718C14.6198 9.3892 14.6771 9.43081 14.741 9.45929C14.8133 9.49149 14.8969 9.50031 15.0641 9.51795L19.5684 9.99336C20.1339 10.053 20.4166 10.0829 20.5425 10.2115C20.6518 10.3232 20.7026 10.4796 20.6798 10.6342C20.6536 10.8122 20.4424 11.0025 20.02 11.3832L16.6553 14.4154C16.5305 14.5279 16.468 14.5842 16.4285 14.6527C16.3935 14.7134 16.3716 14.7807 16.3643 14.8503C16.356 14.929 16.3734 15.0112 16.4083 15.1757L17.3481 19.6064C17.4661 20.1627 17.5251 20.4408 17.4417 20.6002C17.3692 20.7388 17.2362 20.8354 17.0821 20.8615C16.9047 20.8915 16.6584 20.7495 16.1658 20.4654L12.2423 18.2024C12.0967 18.1184 12.0239 18.0765 11.9465 18.06C11.878 18.0455 11.8072 18.0455 11.7387 18.06C11.6613 18.0765 11.5885 18.1184 11.4429 18.2024L7.51939 20.4654C7.02681 20.7495 6.78052 20.8915 6.60311 20.8615C6.449 20.8354 6.31596 20.7388 6.24352 20.6002C6.16013 20.4408 6.21912 20.1627 6.33711 19.6064L7.27687 15.1757C7.31175 15.0112 7.32919 14.929 7.32091 14.8503C7.31358 14.7807 7.29171 14.7134 7.25671 14.6527C7.21716 14.5842 7.15472 14.5279 7.02985 14.4154L3.66523 11.3832C3.24282 11.0025 3.03161 10.8122 3.00535 10.6342C2.98255 10.4796 3.03336 10.3232 3.1427 10.2115C3.26858 10.0829 3.55133 10.053 4.11683 9.99336L8.62112 9.51795C8.7883 9.50031 8.87188 9.49149 8.94416 9.45929C9.00811 9.43081 9.06537 9.3892 9.11223 9.33718C9.16518 9.27839 9.1994 9.20162 9.26785 9.04808L11.1119 4.91115Z" fill="#FFFB00" stroke="#FFFB00" stroke-width="2" stroke-linecap="round" stroke-linejoin="round"/>
<path d="M35.1119 4.91115C35.3434 4.39177 35.4592 4.13208 35.6204 4.05211C35.7604 3.98263 35.9248 3.98263 36.0648 4.05211C36.226 4.13208 36.3418 4.39177 36.5733 4.91115L38.4173 9.04808C38.4858 9.20162 38.52 9.27839 38.573 9.33718C38.6198 9.3892 38.6771 9.43081 38.741 9.45929C38.8133 9.49149 38.8969 9.50031 39.0641 9.51795L43.5684 9.99336C44.1339 10.053 44.4166 10.0829 44.5425 10.2115C44.6518 10.3232 44.7026 10.4796 44.6798 10.6342C44.6536 10.8122 44.4424 11.0025 44.02 11.3832L40.6553 14.4154C40.5305 14.5279 40.468 14.5842 40.4285 14.6527C40.3935 14.7134 40.3716 14.7807 40.3643 14.8503C40.356 14.929 40.3734 15.0112 40.4083 15.1757L41.3481 19.6064C41.4661 20.1627 41.5251 20.4408 41.4417 20.6002C41.3692 20.7388 41.2362 20.8354 41.0821 20.8615C40.9047 20.8915 40.6584 20.7495 40.1658 20.4654L36.2423 18.2024C36.0967 18.1184 36.0239 18.0765 35.9465 18.06C35.878 18.0455 35.8072 18.0455 35.7387 18.06C35.6613 18.0765 35.5885 18.1184 35.4429 18.2024L31.5194 20.4654C31.0268 20.7495 30.7805 20.8915 30.6031 20.8615C30.449 20.8354 30.316 20.7388 30.2435 20.6002C30.1601 20.4408 30.2191 20.1627 30.3371 19.6064L31.2769 15.1757C31.3118 15.0112 31.3292 14.929 31.3209 14.8503C31.3136 14.7807 31.2917 14.7134 31.2567 14.6527C31.2172 14.5842 31.1547 14.5279 31.0299 14.4154L27.6652 11.3832C27.2428 11.0025 27.0316 10.8122 27.0054 10.6342C26.9826 10.4796 27.0334 10.3232 27.1427 10.2115C27.2686 10.0829 27.5513 10.053 28.1168 9.99336L32.6211 9.51795C32.7883 9.50031 32.8719 9.49149 32.9442 9.45929C33.0081 9.43081 33.0654 9.3892 33.1122 9.33718C33.1652 9.27839 33.1994 9.20162 33.2679 9.04808L35.1119 4.91115Z" fill="#FFFB00" stroke="#FFFB00" stroke-width="2" stroke-linecap="round" stroke-linejoin="round"/>
<path d="M59.1119 4.91115C59.3434 4.39177 59.4592 4.13208 59.6204 4.05211C59.7604 3.98263 59.9248 3.98263 60.0648 4.05211C60.226 4.13208 60.3418 4.39177 60.5733 4.91115L62.4173 9.04808C62.4858 9.20162 62.52 9.27839 62.573 9.33718C62.6198 9.3892 62.6771 9.43081 62.741 9.45929C62.8133 9.49149 62.8969 9.50031 63.0641 9.51795L67.5684 9.99336C68.1339 10.053 68.4166 10.0829 68.5425 10.2115C68.6518 10.3232 68.7026 10.4796 68.6798 10.6342C68.6536 10.8122 68.4424 11.0025 68.02 11.3832L64.6553 14.4154C64.5305 14.5279 64.468 14.5842 64.4285 14.6527C64.3935 14.7134 64.3716 14.7807 64.3643 14.8503C64.356 14.929 64.3734 15.0112 64.4083 15.1757L65.3481 19.6064C65.4661 20.1627 65.5251 20.4408 65.4417 20.6002C65.3692 20.7388 65.2362 20.8354 65.0821 20.8615C64.9047 20.8915 64.6584 20.7495 64.1658 20.4654L60.2423 18.2024C60.0967 18.1184 60.0239 18.0765 59.9465 18.06C59.878 18.0455 59.8072 18.0455 59.7387 18.06C59.6613 18.0765 59.5885 18.1184 59.4429 18.2024L55.5194 20.4654C55.0268 20.7495 54.7805 20.8915 54.6031 20.8615C54.449 20.8354 54.316 20.7388 54.2435 20.6002C54.1601 20.4408 54.2191 20.1627 54.3371 19.6064L55.2769 15.1757C55.3118 15.0112 55.3292 14.929 55.3209 14.8503C55.3136 14.7807 55.2917 14.7134 55.2567 14.6527C55.2172 14.5842 55.1547 14.5279 55.0299 14.4154L51.6652 11.3832C51.2428 11.0025 51.0316 10.8122 51.0054 10.6342C50.9826 10.4796 51.0334 10.3232 51.1427 10.2115C51.2686 10.0829 51.5513 10.053 52.1168 9.99336L56.6211 9.51795C56.7883 9.50031 56.8719 9.49149 56.9442 9.45929C57.0081 9.43081 57.0654 9.3892 57.1122 9.33718C57.1652 9.27839 57.1994 9.20162 57.2679 9.04808L59.1119 4.91115Z" fill="#FFFB00" stroke="#FFFB00" stroke-width="2" stroke-linecap="round" stroke-linejoin="round"/>
<path d="M83.1119 4.91115C83.3434 4.39177 83.4592 4.13208 83.6204 4.05211C83.7604 3.98263 83.9248 3.98263 84.0648 4.05211C84.226 4.13208 84.3418 4.39177 84.5733 4.91115L86.4173 9.04808C86.4858 9.20162 86.52 9.27839 86.573 9.33718C86.6198 9.3892 86.6771 9.43081 86.741 9.45929C86.8133 9.49149 86.8969 9.50031 87.0641 9.51795L91.5684 9.99336C92.1339 10.053 92.4166 10.0829 92.5425 10.2115C92.6518 10.3232 92.7026 10.4796 92.6798 10.6342C92.6536 10.8122 92.4424 11.0025 92.02 11.3832L88.6553 14.4154C88.5305 14.5279 88.468 14.5842 88.4285 14.6527C88.3935 14.7134 88.3716 14.7807 88.3643 14.8503C88.356 14.929 88.3734 15.0112 88.4083 15.1757L89.3481 19.6064C89.4661 20.1627 89.5251 20.4408 89.4417 20.6002C89.3692 20.7388 89.2362 20.8354 89.0821 20.8615C88.9047 20.8915 88.6584 20.7495 88.1658 20.4654L84.2423 18.2024C84.0967 18.1184 84.0239 18.0765 83.9465 18.06C83.878 18.0455 83.8072 18.0455 83.7387 18.06C83.6613 18.0765 83.5885 18.1184 83.4429 18.2024L79.5194 20.4654C79.0268 20.7495 78.7805 20.8915 78.6031 20.8615C78.449 20.8354 78.316 20.7388 78.2435 20.6002C78.1601 20.4408 78.2191 20.1627 78.3371 19.6064L79.2769 15.1757C79.3118 15.0112 79.3292 14.929 79.3209 14.8503C79.3136 14.7807 79.2917 14.7134 79.2567 14.6527C79.2172 14.5842 79.1547 14.5279 79.0299 14.4154L75.6652 11.3832C75.2428 11.0025 75.0316 10.8122 75.0054 10.6342C74.9826 10.4796 75.0334 10.3232 75.1427 10.2115C75.2686 10.0829 75.5513 10.053 76.1168 9.99336L80.6211 9.51795C80.7883 9.50031 80.8719 9.49149 80.9442 9.45929C81.0081 9.43081 81.0654 9.3892 81.1122 9.33718C81.1652 9.27839 81.1994 9.20162 81.2679 9.04808L83.1119 4.91115Z" fill="#FFFB00" stroke="#FFFB00" stroke-width="2" stroke-linecap="round" stroke-linejoin="round"/>
<path d="M107.112 4.91115C107.343 4.39177 107.459 4.13208 107.62 4.05211C107.76 3.98263 107.925 3.98263 108.065 4.05211C108.226 4.13208 108.342 4.39177 108.573 4.91115L110.417 9.04808C110.486 9.20162 110.52 9.27839 110.573 9.33718C110.62 9.3892 110.677 9.43081 110.741 9.45929C110.813 9.49149 110.897 9.50031 111.064 9.51795L115.568 9.99336C116.134 10.053 116.417 10.0829 116.542 10.2115C116.652 10.3232 116.703 10.4796 116.68 10.6342C116.654 10.8122 116.442 11.0025 116.02 11.3832L112.655 14.4154C112.53 14.5279 112.468 14.5842 112.428 14.6527C112.393 14.7134 112.372 14.7807 112.364 14.8503C112.356 14.929 112.373 15.0112 112.408 15.1757L113.348 19.6064C113.466 20.1627 113.525 20.4408 113.442 20.6002C113.369 20.7388 113.236 20.8354 113.082 20.8615C112.905 20.8915 112.658 20.7495 112.166 20.4654L108.242 18.2024C108.097 18.1184 108.024 18.0765 107.946 18.06C107.878 18.0455 107.807 18.0455 107.739 18.06C107.661 18.0765 107.588 18.1184 107.443 18.2024L103.519 20.4654C103.027 20.7495 102.781 20.8915 102.603 20.8615C102.449 20.8354 102.316 20.7388 102.244 20.6002C102.16 20.4408 102.219 20.1627 102.337 19.6064L103.277 15.1757C103.312 15.0112 103.329 14.929 103.321 14.8503C103.314 14.7807 103.292 14.7134 103.257 14.6527C103.217 14.5842 103.155 14.5279 103.03 14.4154L99.6652 11.3832C99.2428 11.0025 99.0316 10.8122 99.0054 10.6342C98.9826 10.4796 99.0334 10.3232 99.1427 10.2115C99.2686 10.0829 99.5513 10.053 100.117 9.99336L104.621 9.51795C104.788 9.50031 104.872 9.49149 104.944 9.45929C105.008 9.43081 105.065 9.3892 105.112 9.33718C105.165 9.27839 105.199 9.20162 105.268 9.04808L107.112 4.91115Z" fill="#FFFB00" stroke="#FFFB00" stroke-width="2" stroke-linecap="round" stroke-linejoin="round"/>
</svg>
